<?xml version="1.0" encoding="UTF-8" standalone="no"?>
<!-- Created with Inkscape (http://www.inkscape.org/) -->

<svg
   xmlns:dc="http://purl.org/dc/elements/1.1/"
   xmlns:cc="http://creativecommons.org/ns#"
   xmlns:rdf="http://www.w3.org/1999/02/22-rdf-syntax-ns#"
   xmlns:svg="http://www.w3.org/2000/svg"
   xmlns="http://www.w3.org/2000/svg"
   xmlns:sodipodi="http://sodipodi.sourceforge.net/DTD/sodipodi-0.dtd"
   xmlns:inkscape="http://www.inkscape.org/namespaces/inkscape"
   width="50.749546mm"
   height="65.109413mm"
   viewBox="0 0 50.749546 65.109413"
   version="1.1"
   id="svg29781"
   inkscape:version="0.92.3 (2405546, 2018-03-11)"
   sodipodi:docname="pizarra-vertical.svg">
  <defs
     id="defs29775" />
  <sodipodi:namedview
     id="base"
     pagecolor="#ffffff"
     bordercolor="#666666"
     borderopacity="1.0"
     inkscape:pageopacity="0.0"
     inkscape:pageshadow="2"
     inkscape:zoom="1.979899"
     inkscape:cx="129.18723"
     inkscape:cy="135.02237"
     inkscape:document-units="mm"
     inkscape:current-layer="layer1"
     showgrid="false"
     fit-margin-top="0"
     fit-margin-left="0"
     fit-margin-right="0"
     fit-margin-bottom="0"
     inkscape:window-width="1366"
     inkscape:window-height="708"
     inkscape:window-x="0"
     inkscape:window-y="32"
     inkscape:window-maximized="1" />
  <metadata
     id="metadata29778">
    <rdf:RDF>
      <cc:Work
         rdf:about="">
        <dc:format>image/svg+xml</dc:format>
        <dc:type
           rdf:resource="http://purl.org/dc/dcmitype/StillImage" />
        <dc:title></dc:title>
      </cc:Work>
    </rdf:RDF>
  </metadata>
  <g
     inkscape:label="Capa 1"
     inkscape:groupmode="layer"
     id="layer1"
     transform="translate(-75.922845,-78.481004)">
    <path
       style="clip-rule:evenodd;fill:#000000;fill-opacity:0.10196102;fill-rule:evenodd;stroke-width:0.00999991;image-rendering:optimizeQuality;shape-rendering:geometricPrecision;text-rendering:geometricPrecision"
       inkscape:connector-curvature="0"
       id="path5853"
       d="m 78.65282,79.600994 h 45.88959 c 1.16999,0 2.12998,0.959991 2.12998,2.129981 v 59.729465 c 0,1.16999 -0.95999,2.12998 -2.12998,2.12998 H 78.65282 c -1.179989,0 -2.139981,-0.95999 -2.139981,-2.12998 V 81.730975 c 0,-1.16999 0.959992,-2.129981 2.139981,-2.129981 z"
       class="fil1" />
    <path
       style="clip-rule:evenodd;fill:#ffffff;fill-rule:evenodd;stroke-width:0.00999991;image-rendering:optimizeQuality;shape-rendering:geometricPrecision;text-rendering:geometricPrecision"
       inkscape:connector-curvature="0"
       id="path5857"
       d="m 78.062826,78.481004 h 45.879594 c 1.17999,0 2.13998,0.959991 2.13998,2.129981 v 59.729465 c 0,1.16999 -0.95999,2.12999 -2.13998,2.12999 H 78.062826 c -1.17999,0 -2.139981,-0.96 -2.139981,-2.12999 V 80.610985 c 0,-1.16999 0.959991,-2.129981 2.139981,-2.129981 z"
       class="fil3" />
    <path
       style="clip-rule:evenodd;fill:#e6e6e6;fill-rule:evenodd;stroke-width:0.00999991;image-rendering:optimizeQuality;shape-rendering:geometricPrecision;text-rendering:geometricPrecision"
       inkscape:connector-curvature="0"
       id="path5859"
       d="m 79.392814,79.910991 h 43.499616 c 1.09999,0 2.00998,0.899992 2.00998,2.009982 v 57.279497 c 0,1.10998 -0.90999,2.00998 -2.00998,2.00998 H 79.392814 c -1.09999,0 -2.009982,-0.9 -2.009982,-2.00998 V 81.920973 c 0,-1.10999 0.909992,-2.009982 2.009982,-2.009982 z"
       class="fil2"
       inkscape:export-filename="/home/jacobopus/WebstormProjects/html5/mathwars/assets/img/pizarra-vertical.png"
       inkscape:export-xdpi="135.56645"
       inkscape:export-ydpi="135.56645" />
    <path
       style="clip-rule:evenodd;fill:#f1c383;fill-rule:evenodd;stroke-width:0.00999991;image-rendering:optimizeQuality;shape-rendering:geometricPrecision;text-rendering:geometricPrecision"
       inkscape:connector-curvature="0"
       id="path5861"
       d="m 78.932818,79.650993 h 43.559612 c 1.09999,0 1.99998,0.889992 1.99998,1.989983 v 57.019494 c 0,1.08999 -0.89999,1.98998 -1.99998,1.98998 H 78.932818 c -1.09999,0 -1.999982,-0.89999 -1.999982,-1.98998 V 81.640976 c 0,-1.099991 0.899992,-1.989983 1.999982,-1.989983 z"
       class="fil4"
       inkscape:export-filename="/home/jacobopus/WebstormProjects/html5/mathwars/assets/img/pizarra-vertical.png"
       inkscape:export-xdpi="135.56645"
       inkscape:export-ydpi="135.56645" />
    <path
       style="clip-rule:evenodd;fill:#faedc9;fill-rule:evenodd;stroke-width:0.00999991;image-rendering:optimizeQuality;shape-rendering:geometricPrecision;text-rendering:geometricPrecision"
       inkscape:connector-curvature="0"
       id="path5867"
       d="m 79.222815,79.380996 c 14.179875,0 28.359745,0 42.539625,0 1.06999,0 1.93998,0.879992 1.93998,1.949982 0,18.639835 0,37.289672 0,55.939502 0,1.06999 -0.86999,1.93998 -1.93998,1.93998 -14.17988,0 -28.35975,0 -42.539625,0 -1.06999,0 -1.949982,-0.86999 -1.949982,-1.93998 0,-18.64983 0,-37.299667 0,-55.939502 0,-1.06999 0.879992,-1.949982 1.949982,-1.949982 z"
       class="fil6"
       inkscape:export-filename="/home/jacobopus/WebstormProjects/html5/mathwars/assets/img/pizarra-vertical.png"
       inkscape:export-xdpi="135.56645"
       inkscape:export-ydpi="135.56645" />
    <path
       style="clip-rule:evenodd;fill:#f9ecc6;fill-rule:evenodd;stroke-width:0.00999991;image-rendering:optimizeQuality;shape-rendering:geometricPrecision;text-rendering:geometricPrecision"
       inkscape:connector-curvature="0"
       id="path5869"
       d="m 79.532812,79.650993 c 13.969877,0 27.939758,0 41.909628,0 1.05999,0 1.91998,0.859993 1.91998,1.909984 0,18.489833 0,36.979673 0,55.469503 0,1.05999 -0.85999,1.91999 -1.91998,1.91999 -13.96987,0 -27.939751,0 -41.909628,0 -1.04999,0 -1.909983,-0.86 -1.909983,-1.91999 0,-18.48983 0,-36.97967 0,-55.469503 0,-1.049991 0.859993,-1.909984 1.909983,-1.909984 z"
       class="fil7"
       inkscape:export-filename="/home/jacobopus/WebstormProjects/html5/mathwars/assets/img/pizarra-vertical.png"
       inkscape:export-xdpi="135.56645"
       inkscape:export-ydpi="135.56645" />
    <path
       style="clip-rule:evenodd;fill:#f9ebc2;fill-rule:evenodd;stroke-width:0.00999991;image-rendering:optimizeQuality;shape-rendering:geometricPrecision;text-rendering:geometricPrecision"
       inkscape:connector-curvature="0"
       id="path5871"
       d="m 79.85281,79.910991 c 13.759878,0 27.51976,0 41.26963,0 1.03999,0 1.89999,0.849993 1.89999,1.889983 0,18.329836 0,36.659676 0,54.989516 0,1.03999 -0.86,1.89998 -1.89999,1.89998 -13.74987,0 -27.509752,0 -41.26963,0 -1.039991,0 -1.889984,-0.85999 -1.889984,-1.89998 0,-18.32984 0,-36.65968 0,-54.989516 0,-1.03999 0.849993,-1.889983 1.889984,-1.889983 z"
       class="fil8"
       inkscape:export-filename="/home/jacobopus/WebstormProjects/html5/mathwars/assets/img/pizarra-vertical.png"
       inkscape:export-xdpi="135.56645"
       inkscape:export-ydpi="135.56645" />
    <path
       style="clip-rule:evenodd;fill:#f8eabf;fill-rule:evenodd;stroke-width:0.00999991;image-rendering:optimizeQuality;shape-rendering:geometricPrecision;text-rendering:geometricPrecision"
       inkscape:connector-curvature="0"
       id="path5873"
       d="m 80.172807,80.170989 c 13.54988,0 27.089763,0 40.639643,0 1.01999,0 1.86998,0.839992 1.86998,1.869983 0,18.169838 0,36.339678 0,54.509518 0,1.02999 -0.84999,1.87998 -1.86998,1.87998 -13.54988,0 -27.089763,0 -40.639643,0 -1.029991,0 -1.869984,-0.84999 -1.869984,-1.87998 0,-18.16984 0,-36.33968 0,-54.509518 0,-1.029991 0.839993,-1.869983 1.869984,-1.869983 z"
       class="fil9"
       inkscape:export-filename="/home/jacobopus/WebstormProjects/html5/mathwars/assets/img/pizarra-vertical.png"
       inkscape:export-xdpi="135.56645"
       inkscape:export-ydpi="135.56645" />
    <path
       style="clip-rule:evenodd;fill:#f8e9bc;fill-rule:evenodd;stroke-width:0.00999991;image-rendering:optimizeQuality;shape-rendering:geometricPrecision;text-rendering:geometricPrecision"
       inkscape:connector-curvature="0"
       id="path5875"
       d="m 80.492804,80.430986 c 13.329882,0 26.659766,0 39.999646,0 1.00999,0 1.83998,0.829993 1.83998,1.849984 0,18.00984 0,36.01968 0,54.03952 0,1.00999 -0.82999,1.83998 -1.83998,1.83998 -13.33988,0 -26.669764,0 -39.999646,0 -1.019991,0 -1.849984,-0.82999 -1.849984,-1.83998 0,-18.01984 0,-36.02968 0,-54.03952 0,-1.019991 0.829993,-1.849984 1.849984,-1.849984 z"
       class="fil10"
       inkscape:export-filename="/home/jacobopus/WebstormProjects/html5/mathwars/assets/img/pizarra-vertical.png"
       inkscape:export-xdpi="135.56645"
       inkscape:export-ydpi="135.56645" />
    <path
       style="clip-rule:evenodd;fill:#f7e8b9;fill-rule:evenodd;stroke-width:0.00999991;image-rendering:optimizeQuality;shape-rendering:geometricPrecision;text-rendering:geometricPrecision"
       inkscape:connector-curvature="0"
       id="path5877"
       d="m 80.802801,80.690984 c 13.129884,0 26.249769,0 39.369649,0 0.99999,0 1.81999,0.819993 1.81999,1.829984 0,17.849842 0,35.699682 0,53.559522 0,0.99999 -0.82,1.81998 -1.81999,1.81998 -13.11988,0 -26.239765,0 -39.369649,0 -0.999991,0 -1.819984,-0.81999 -1.819984,-1.81998 0,-17.85984 0,-35.70968 0,-53.559522 0,-1.009991 0.819993,-1.829984 1.819984,-1.829984 z"
       class="fil11"
       inkscape:export-filename="/home/jacobopus/WebstormProjects/html5/mathwars/assets/img/pizarra-vertical.png"
       inkscape:export-xdpi="135.56645"
       inkscape:export-ydpi="135.56645" />
    <path
       style="clip-rule:evenodd;fill:#f7e7b6;fill-rule:evenodd;stroke-width:0.00999991;image-rendering:optimizeQuality;shape-rendering:geometricPrecision;text-rendering:geometricPrecision"
       inkscape:connector-curvature="0"
       id="path5879"
       d="m 81.122798,80.950982 c 12.909886,0 25.819772,0 38.729652,0 0.99,0 1.79999,0.809993 1.79999,1.799984 0,17.699844 0,35.399684 0,53.089534 0,0.98998 -0.80999,1.79998 -1.79999,1.79998 -12.90988,0 -25.819766,0 -38.729652,0 -0.989991,0 -1.799984,-0.81 -1.799984,-1.79998 0,-17.68985 0,-35.38969 0,-53.089534 0,-0.989991 0.809993,-1.799984 1.799984,-1.799984 z"
       class="fil12"
       inkscape:export-filename="/home/jacobopus/WebstormProjects/html5/mathwars/assets/img/pizarra-vertical.png"
       inkscape:export-xdpi="135.56645"
       inkscape:export-ydpi="135.56645" />
    <path
       style="clip-rule:evenodd;fill:#f6e6b3;fill-rule:evenodd;stroke-width:0.00999991;image-rendering:optimizeQuality;shape-rendering:geometricPrecision;text-rendering:geometricPrecision"
       inkscape:connector-curvature="0"
       id="path5881"
       d="m 81.442796,81.22098 c 12.699887,0 25.399774,0 38.099664,0 0.96999,0 1.76998,0.799992 1.76998,1.769984 0,17.539846 0,35.079686 0,52.609536 0,0.97999 -0.79999,1.77998 -1.76998,1.77998 -12.69989,0 -25.399777,0 -38.099664,0 -0.979992,0 -1.769985,-0.79999 -1.769985,-1.77998 0,-17.52985 0,-35.06969 0,-52.609536 0,-0.969992 0.789993,-1.769984 1.769985,-1.769984 z"
       class="fil13"
       inkscape:export-filename="/home/jacobopus/WebstormProjects/html5/mathwars/assets/img/pizarra-vertical.png"
       inkscape:export-xdpi="135.56645"
       inkscape:export-ydpi="135.56645" />
    <path
       style="clip-rule:evenodd;fill:#f6e5af;fill-rule:evenodd;stroke-width:0.00999991;image-rendering:optimizeQuality;shape-rendering:geometricPrecision;text-rendering:geometricPrecision"
       inkscape:connector-curvature="0"
       id="path5883"
       d="m 81.762793,81.480977 c 12.479889,0 24.969777,0 37.459667,0 0.95999,0 1.74998,0.789993 1.74998,1.749984 0,17.379849 0,34.759689 0,52.139539 0,0.95999 -0.78999,1.74998 -1.74998,1.74998 -12.48989,0 -24.979778,0 -37.459667,0 -0.969992,0 -1.749985,-0.78999 -1.749985,-1.74998 0,-17.37985 0,-34.75969 0,-52.139539 0,-0.959991 0.779993,-1.749984 1.749985,-1.749984 z"
       class="fil14"
       inkscape:export-filename="/home/jacobopus/WebstormProjects/html5/mathwars/assets/img/pizarra-vertical.png"
       inkscape:export-xdpi="135.56645"
       inkscape:export-ydpi="135.56645" />
    <path
       style="clip-rule:evenodd;fill:#f5e4ac;fill-rule:evenodd;stroke-width:0.00999991;image-rendering:optimizeQuality;shape-rendering:geometricPrecision;text-rendering:geometricPrecision"
       inkscape:connector-curvature="0"
       id="path5885"
       d="m 82.08279,81.740975 c 12.269891,0 24.54978,0 36.81967,0 0.94999,0 1.72999,0.779993 1.72999,1.729984 0,17.219851 0,34.439691 0,51.659541 0,0.94999 -0.78,1.71998 -1.72999,1.71998 -12.26989,0 -24.549779,0 -36.81967,0 -0.949992,0 -1.729985,-0.76999 -1.729985,-1.71998 0,-17.21985 0,-34.43969 0,-51.659541 0,-0.949991 0.779993,-1.729984 1.729985,-1.729984 z"
       class="fil15"
       inkscape:export-filename="/home/jacobopus/WebstormProjects/html5/mathwars/assets/img/pizarra-vertical.png"
       inkscape:export-xdpi="135.56645"
       inkscape:export-ydpi="135.56645" />
    <path
       style="clip-rule:evenodd;fill:#f5e3a9;fill-rule:evenodd;stroke-width:0.00999991;image-rendering:optimizeQuality;shape-rendering:geometricPrecision;text-rendering:geometricPrecision"
       inkscape:connector-curvature="0"
       id="path5887"
       d="m 82.392787,82.000973 h 36.189673 c 0.94,0 1.70999,0.769993 1.70999,1.709984 V 134.8905 c 0,0.93999 -0.76999,1.69999 -1.70999,1.69999 H 82.392787 c -0.929992,0 -1.699985,-0.76 -1.699985,-1.69999 V 83.710957 c 0,-0.939991 0.769993,-1.709984 1.699985,-1.709984 z"
       class="fil16"
       inkscape:export-filename="/home/jacobopus/WebstormProjects/html5/mathwars/assets/img/pizarra-vertical.png"
       inkscape:export-xdpi="135.56645"
       inkscape:export-ydpi="135.56645" />
    <path
       style="clip-rule:evenodd;fill:#efb469;fill-rule:evenodd;stroke-width:0.00999991;image-rendering:optimizeQuality;shape-rendering:geometricPrecision;text-rendering:geometricPrecision"
       inkscape:connector-curvature="0"
       id="path5899"
       d="m 80.422805,84.060954 h 37.129675 c 0.93999,0 1.69998,0.809993 1.69998,1.809984 v 47.509582 c 0,0.99999 -0.75999,1.80998 -1.69998,1.80998 H 80.422805 c -0.939992,0 -1.699985,-0.80999 -1.699985,-1.80998 V 85.870938 c 0,-0.999991 0.759993,-1.809984 1.699985,-1.809984 z"
       class="fil33"
       inkscape:export-filename="/home/jacobopus/WebstormProjects/html5/mathwars/assets/img/pizarra-vertical.png"
       inkscape:export-xdpi="135.56645"
       inkscape:export-ydpi="135.56645" />
    <path
       style="clip-rule:evenodd;fill:#f1c383;fill-rule:evenodd;stroke-width:0.00999991;image-rendering:optimizeQuality;shape-rendering:geometricPrecision;text-rendering:geometricPrecision"
       inkscape:connector-curvature="0"
       id="path5901"
       d="m 81.052799,84.930946 h 35.859681 c 0.90999,0 1.64998,0.779994 1.64998,1.739985 v 46.459589 c 0,0.95999 -0.73999,1.74998 -1.64998,1.74998 H 81.052799 c -0.899992,0 -1.639985,-0.78999 -1.639985,-1.74998 V 86.670931 c 0,-0.959991 0.739993,-1.739985 1.639985,-1.739985 z"
       class="fil4"
       inkscape:export-filename="/home/jacobopus/WebstormProjects/html5/mathwars/assets/img/pizarra-vertical.png"
       inkscape:export-xdpi="135.56645"
       inkscape:export-ydpi="135.56645" />
    <path
       style="clip-rule:evenodd;fill:#f1c585;fill-rule:evenodd;stroke-width:0.00999991;image-rendering:optimizeQuality;shape-rendering:geometricPrecision;text-rendering:geometricPrecision"
       inkscape:connector-curvature="0"
       id="path5905"
       d="m 81.132798,85.260943 c 11.899895,0 23.809792,0 35.709682,0 0.88999,0 1.61999,0.779994 1.61999,1.729985 0,15.369862 0,30.749722 0,46.119592 0,0.94999 -0.73,1.72998 -1.61999,1.72998 -11.89989,0 -23.809787,0 -35.709682,0 -0.889992,0 -1.629985,-0.77999 -1.629985,-1.72998 0,-15.36987 0,-30.74973 0,-46.119592 0,-0.949991 0.729993,-1.729985 1.629985,-1.729985 z"
       class="fil34"
       inkscape:export-filename="/home/jacobopus/WebstormProjects/html5/mathwars/assets/img/pizarra-vertical.png"
       inkscape:export-xdpi="135.56645"
       inkscape:export-ydpi="135.56645" />
    <path
       style="clip-rule:evenodd;fill:#f1c786;fill-rule:evenodd;stroke-width:0.00999991;image-rendering:optimizeQuality;shape-rendering:geometricPrecision;text-rendering:geometricPrecision"
       inkscape:connector-curvature="0"
       id="path5907"
       d="m 81.202798,85.60094 c 11.859895,0 23.709792,0 35.559682,0 0.88999,0 1.60999,0.759994 1.60999,1.699985 0,15.269865 0,30.529725 0,45.799595 0,0.93999 -0.72,1.70998 -1.60999,1.70998 -11.84989,0 -23.699787,0 -35.559682,0 -0.879992,0 -1.599986,-0.76999 -1.599986,-1.70998 0,-15.26987 0,-30.52973 0,-45.799595 0,-0.939991 0.719994,-1.699985 1.599986,-1.699985 z"
       class="fil35"
       inkscape:export-filename="/home/jacobopus/WebstormProjects/html5/mathwars/assets/img/pizarra-vertical.png"
       inkscape:export-xdpi="135.56645"
       inkscape:export-ydpi="135.56645" />
    <path
       style="clip-rule:evenodd;fill:#f2ca88;fill-rule:evenodd;stroke-width:0.00999991;image-rendering:optimizeQuality;shape-rendering:geometricPrecision;text-rendering:geometricPrecision"
       inkscape:connector-curvature="0"
       id="path5909"
       d="m 81.282797,85.930938 c 11.799896,0 23.609793,0 35.409683,0 0.86999,0 1.58999,0.759993 1.58999,1.689985 0,15.149867 0,30.309727 0,45.459597 0,0.92999 -0.72,1.68998 -1.58999,1.68998 -11.79989,0 -23.609787,0 -35.409683,0 -0.879992,0 -1.589986,-0.75999 -1.589986,-1.68998 0,-15.14987 0,-30.30973 0,-45.459597 0,-0.929992 0.709994,-1.689985 1.589986,-1.689985 z"
       class="fil36"
       inkscape:export-filename="/home/jacobopus/WebstormProjects/html5/mathwars/assets/img/pizarra-vertical.png"
       inkscape:export-xdpi="135.56645"
       inkscape:export-ydpi="135.56645" />
    <path
       style="clip-rule:evenodd;fill:#f2cc8a;fill-rule:evenodd;stroke-width:0.00999991;image-rendering:optimizeQuality;shape-rendering:geometricPrecision;text-rendering:geometricPrecision"
       inkscape:connector-curvature="0"
       id="path5911"
       d="m 81.352796,86.260935 c 11.759896,0 23.509794,0 35.269684,0 0.86,0 1.56999,0.759993 1.56999,1.679985 0,15.03987 0,30.07973 0,45.1196 0,0.91999 -0.70999,1.66998 -1.56999,1.66998 -11.75989,0 -23.509788,0 -35.269684,0 -0.859992,0 -1.569986,-0.74999 -1.569986,-1.66998 0,-15.03987 0,-30.07973 0,-45.1196 0,-0.919992 0.709994,-1.679985 1.569986,-1.679985 z"
       class="fil37"
       inkscape:export-filename="/home/jacobopus/WebstormProjects/html5/mathwars/assets/img/pizarra-vertical.png"
       inkscape:export-xdpi="135.56645"
       inkscape:export-ydpi="135.56645" />
    <path
       style="clip-rule:evenodd;fill:#f2ce8b;fill-rule:evenodd;stroke-width:0.00999991;image-rendering:optimizeQuality;shape-rendering:geometricPrecision;text-rendering:geometricPrecision"
       inkscape:connector-curvature="0"
       id="path5913"
       d="m 81.422796,86.600932 c 11.709896,0 23.419794,0 35.119684,0 0.86,0 1.54999,0.739993 1.54999,1.649985 0,14.929863 0,29.869733 0,44.799603 0,0.90999 -0.68999,1.64998 -1.54999,1.64998 -11.69989,0 -23.409788,0 -35.119684,0 -0.849993,0 -1.549987,-0.73999 -1.549987,-1.64998 0,-14.92987 0,-29.86974 0,-44.799603 0,-0.909992 0.699994,-1.649985 1.549987,-1.649985 z"
       class="fil38"
       inkscape:export-filename="/home/jacobopus/WebstormProjects/html5/mathwars/assets/img/pizarra-vertical.png"
       inkscape:export-xdpi="135.56645"
       inkscape:export-ydpi="135.56645" />
    <path
       style="clip-rule:evenodd;fill:#f2d08d;fill-rule:evenodd;stroke-width:0.00999991;image-rendering:optimizeQuality;shape-rendering:geometricPrecision;text-rendering:geometricPrecision"
       inkscape:connector-curvature="0"
       id="path5915"
       d="m 81.502795,86.930929 c 11.659897,0 23.309795,0 34.969685,0 0.84,0 1.52999,0.739993 1.52999,1.639985 0,14.819866 0,29.639736 0,44.459606 0,0.89999 -0.68999,1.62998 -1.52999,1.62998 -11.65989,0 -23.309788,0 -34.969685,0 -0.839992,0 -1.529986,-0.72999 -1.529986,-1.62998 0,-14.81987 0,-29.63974 0,-44.459606 0,-0.899992 0.689994,-1.639985 1.529986,-1.639985 z"
       class="fil39"
       inkscape:export-filename="/home/jacobopus/WebstormProjects/html5/mathwars/assets/img/pizarra-vertical.png"
       inkscape:export-xdpi="135.56645"
       inkscape:export-ydpi="135.56645" />
    <path
       style="clip-rule:evenodd;fill:#f2d28e;fill-rule:evenodd;stroke-width:0.00999991;image-rendering:optimizeQuality;shape-rendering:geometricPrecision;text-rendering:geometricPrecision"
       inkscape:connector-curvature="0"
       id="path5917"
       d="m 81.572794,87.270926 c 11.609898,0 23.219796,0 34.829696,0 0.82999,0 1.50998,0.719993 1.50998,1.609986 0,14.709868 0,29.419738 0,44.139608 0,0.87999 -0.67999,1.60999 -1.50998,1.60999 -11.6099,0 -23.219798,0 -34.829696,0 -0.829992,0 -1.509986,-0.73 -1.509986,-1.60999 0,-14.71987 0,-29.42974 0,-44.139608 0,-0.889993 0.679994,-1.609986 1.509986,-1.609986 z"
       class="fil40"
       inkscape:export-filename="/home/jacobopus/WebstormProjects/html5/mathwars/assets/img/pizarra-vertical.png"
       inkscape:export-xdpi="135.56645"
       inkscape:export-ydpi="135.56645" />
    <path
       style="clip-rule:evenodd;fill:#f2d490;fill-rule:evenodd;stroke-width:0.00999991;image-rendering:optimizeQuality;shape-rendering:geometricPrecision;text-rendering:geometricPrecision"
       inkscape:connector-curvature="0"
       id="path5919"
       d="m 81.652794,87.600923 c 11.549897,0 23.109796,0 34.669696,0 0.81999,0 1.49998,0.719993 1.49998,1.599986 0,14.599871 0,29.199741 0,43.799611 0,0.87999 -0.67999,1.58999 -1.49998,1.58999 -11.5599,0 -23.119799,0 -34.669696,0 -0.829993,0 -1.499987,-0.71 -1.499987,-1.58999 0,-14.59987 0,-29.19974 0,-43.799611 0,-0.879993 0.669994,-1.599986 1.499987,-1.599986 z"
       class="fil41"
       inkscape:export-filename="/home/jacobopus/WebstormProjects/html5/mathwars/assets/img/pizarra-vertical.png"
       inkscape:export-xdpi="135.56645"
       inkscape:export-ydpi="135.56645" />
    <path
       style="clip-rule:evenodd;fill:#f3d792;fill-rule:evenodd;stroke-width:0.00999991;image-rendering:optimizeQuality;shape-rendering:geometricPrecision;text-rendering:geometricPrecision"
       inkscape:connector-curvature="0"
       id="path5921"
       d="m 81.722793,87.94092 c 11.509898,0 23.019797,0 34.529697,0 0.80999,0 1.46998,0.709994 1.46998,1.569986 0,14.489874 0,28.979744 0,43.469614 0,0.86999 -0.65999,1.57998 -1.46998,1.57998 -11.5099,0 -23.019799,0 -34.529697,0 -0.809993,0 -1.479987,-0.70999 -1.479987,-1.57998 0,-14.48987 0,-28.97974 0,-43.469614 0,-0.859992 0.669994,-1.569986 1.479987,-1.569986 z"
       class="fil42"
       inkscape:export-filename="/home/jacobopus/WebstormProjects/html5/mathwars/assets/img/pizarra-vertical.png"
       inkscape:export-xdpi="135.56645"
       inkscape:export-ydpi="135.56645" />
    <path
       style="clip-rule:evenodd;fill:#f3d993;fill-rule:evenodd;stroke-width:0.00999991;image-rendering:optimizeQuality;shape-rendering:geometricPrecision;text-rendering:geometricPrecision"
       inkscape:connector-curvature="0"
       id="path5923"
       d="m 81.792792,88.270917 c 11.459899,0 22.919798,0 34.379698,0 0.80999,0 1.45998,0.699994 1.45998,1.559986 0,14.379877 0,28.759747 0,43.139617 0,0.84999 -0.64999,1.54998 -1.45998,1.54998 -11.4599,0 -22.919799,0 -34.379698,0 -0.799992,0 -1.449987,-0.69999 -1.449987,-1.54998 0,-14.37987 0,-28.75974 0,-43.139617 0,-0.859992 0.649995,-1.559986 1.449987,-1.559986 z"
       class="fil43"
       inkscape:export-filename="/home/jacobopus/WebstormProjects/html5/mathwars/assets/img/pizarra-vertical.png"
       inkscape:export-xdpi="135.56645"
       inkscape:export-ydpi="135.56645" />
    <path
       style="clip-rule:evenodd;fill:#f3db95;fill-rule:evenodd;stroke-width:0.00999991;image-rendering:optimizeQuality;shape-rendering:geometricPrecision;text-rendering:geometricPrecision"
       inkscape:connector-curvature="0"
       id="path5925"
       d="m 81.872792,88.610914 h 34.229698 c 0.78999,0 1.43998,0.689994 1.43998,1.529986 v 42.80962 c 0,0.84999 -0.64999,1.53999 -1.43998,1.53999 H 81.872792 c -0.789993,0 -1.439987,-0.69 -1.439987,-1.53999 V 90.1409 c 0,-0.839992 0.649994,-1.529986 1.439987,-1.529986 z"
       class="fil44"
       inkscape:export-filename="/home/jacobopus/WebstormProjects/html5/mathwars/assets/img/pizarra-vertical.png"
       inkscape:export-xdpi="135.56645"
       inkscape:export-ydpi="135.56645" />
    <path
       style="clip-rule:evenodd;fill:#ffffff;fill-rule:evenodd;stroke-width:0.00999991;image-rendering:optimizeQuality;shape-rendering:geometricPrecision;text-rendering:geometricPrecision"
       inkscape:connector-curvature="0"
       id="path5893"
       d="m 80.492804,80.430986 c 0.919992,0 1.669985,0.749994 1.669985,1.669985 0,0.929992 -0.749993,1.679986 -1.669985,1.679986 -0.919992,0 -1.669985,-0.749994 -1.669985,-1.679986 0,-0.919991 0.749993,-1.669985 1.669985,-1.669985 z"
       class="fil3" />
    <path
       style="clip-rule:evenodd;fill:#ffffff;fill-rule:evenodd;stroke-width:0.00999991;image-rendering:optimizeQuality;shape-rendering:geometricPrecision;text-rendering:geometricPrecision"
       inkscape:connector-curvature="0"
       id="path5895"
       d="m 83.072781,80.230988 c 0.509996,0 0.929992,0.409996 0.929992,0.919992 0,0.509995 -0.419996,0.929992 -0.929992,0.929992 -0.509995,0 -0.919992,-0.419997 -0.919992,-0.929992 0,-0.509996 0.409997,-0.919992 0.919992,-0.919992 z"
       class="fil3" />
  </g>
</svg>
