<?xml version="1.0" encoding="UTF-8" standalone="no"?>
<!-- Created with Inkscape (http://www.inkscape.org/) -->

<svg
   xmlns:osb="http://www.openswatchbook.org/uri/2009/osb"
   xmlns:dc="http://purl.org/dc/elements/1.1/"
   xmlns:cc="http://creativecommons.org/ns#"
   xmlns:rdf="http://www.w3.org/1999/02/22-rdf-syntax-ns#"
   xmlns:svg="http://www.w3.org/2000/svg"
   xmlns="http://www.w3.org/2000/svg"
   xmlns:sodipodi="http://sodipodi.sourceforge.net/DTD/sodipodi-0.dtd"
   xmlns:inkscape="http://www.inkscape.org/namespaces/inkscape"
   width="12.700026mm"
   height="13.274935mm"
   viewBox="0 0 12.700026 13.274935"
   version="1.1"
   id="svg45344"
   inkscape:version="0.92.3 (2405546, 2018-03-11)"
   sodipodi:docname="reload.svg">
  <defs
     id="defs45338">
    <linearGradient
       id="linearGradient47621"
       osb:paint="solid">
      <stop
         style="stop-color:#34aff3;stop-opacity:1;"
         offset="0"
         id="stop47619" />
    </linearGradient>
  </defs>
  <sodipodi:namedview
     id="base"
     pagecolor="#ffffff"
     bordercolor="#666666"
     borderopacity="1.0"
     inkscape:pageopacity="0.0"
     inkscape:pageshadow="2"
     inkscape:zoom="5.6568542"
     inkscape:cx="3.2597537"
     inkscape:cy="29.356297"
     inkscape:document-units="mm"
     inkscape:current-layer="layer1"
     showgrid="false"
     fit-margin-top="0"
     fit-margin-left="0"
     fit-margin-right="0"
     fit-margin-bottom="0"
     inkscape:window-width="1366"
     inkscape:window-height="708"
     inkscape:window-x="0"
     inkscape:window-y="32"
     inkscape:window-maximized="1"
     showguides="true"
     inkscape:guide-bbox="true">
    <sodipodi:guide
       position="1.6280641,13.405032"
       orientation="1,0"
       id="guide47761"
       inkscape:locked="false" />
  </sodipodi:namedview>
  <metadata
     id="metadata45341">
    <rdf:RDF>
      <cc:Work
         rdf:about="">
        <dc:format>image/svg+xml</dc:format>
        <dc:type
           rdf:resource="http://purl.org/dc/dcmitype/StillImage" />
        <dc:title></dc:title>
      </cc:Work>
    </rdf:RDF>
  </metadata>
  <g
     inkscape:label="Capa 1"
     inkscape:groupmode="layer"
     id="layer1"
     transform="translate(-8.3802742,-116.31995)">
    <path
       style="clip-rule:evenodd;fill:#000000;fill-opacity:0.10196102;fill-rule:evenodd;stroke-width:0.013345;image-rendering:optimizeQuality;shape-rendering:geometricPrecision;text-rendering:geometricPrecision"
       inkscape:connector-curvature="0"
       id="path8245"
       d="m 10.567774,117.64777 c 2.855831,-0.50711 5.671626,-0.50711 8.460732,0 0.894116,0.16014 1.46795,0.76067 1.641436,1.65478 0.547144,2.8158 0.547144,5.63159 0,8.44739 -0.16014,0.89412 -0.74732,1.57471 -1.641436,1.65478 -2.789106,0.25355 -5.604901,0.25355 -8.460732,0 -0.9074602,-0.0801 -1.5480207,-0.74732 -1.6547803,-1.65478 -0.3069352,-2.8158 -0.3736608,-5.63159 0,-8.44739 0.120106,-0.90745 0.7606652,-1.49464 1.6547803,-1.65478 z"
       class="fil1" />
    <path
       style="clip-rule:evenodd;fill:#e6e6e6;fill-rule:evenodd;stroke-width:0.013345;image-rendering:optimizeQuality;shape-rendering:geometricPrecision;text-rendering:geometricPrecision"
       inkscape:connector-curvature="0"
       id="path8247"
       d="m 10.287529,117.00722 c 2.855831,-0.50712 5.671626,-0.50712 8.460731,0 0.894115,0.16013 1.481295,0.76066 1.641437,1.64142 0.547144,2.82915 0.547144,5.64495 0,8.46074 -0.160142,0.89411 -0.733977,1.57471 -1.641437,1.65478 -2.789105,0.25356 -5.6049,0.25356 -8.460731,0 -0.9074601,-0.0801 -1.5480206,-0.74732 -1.6414351,-1.65478 -0.3202801,-2.81579 -0.3870057,-5.63159 0,-8.46074 0.1201061,-0.89411 0.7473201,-1.48129 1.6414351,-1.64142 z"
       class="fil2" />
    <path
       style="clip-rule:evenodd;fill:#ffffff;fill-rule:evenodd;stroke-width:0.013345;image-rendering:optimizeQuality;shape-rendering:geometricPrecision;text-rendering:geometricPrecision"
       inkscape:connector-curvature="0"
       id="path8249"
       d="m 10.287529,116.70028 c 2.855831,-0.50711 5.671626,-0.50711 8.460731,0 0.894115,0.16014 1.481295,0.76066 1.641437,1.64144 0.547144,2.82914 0.547144,5.64493 0,8.46072 -0.160142,0.89411 -0.733977,1.57472 -1.641437,1.65479 -2.789105,0.25355 -5.6049,0.25355 -8.460731,0 -0.9074601,-0.0801 -1.5480206,-0.74733 -1.6414351,-1.65479 -0.3202801,-2.81579 -0.3870057,-5.63158 0,-8.46072 0.1201061,-0.89413 0.7473201,-1.4813 1.6414351,-1.64144 z"
       class="fil3" />
    <path
       style="clip-rule:evenodd;fill:#e6e6e6;fill-rule:evenodd;stroke-width:0.013345;image-rendering:optimizeQuality;shape-rendering:geometricPrecision;text-rendering:geometricPrecision"
       inkscape:connector-curvature="0"
       id="path8251"
       d="m 10.914743,117.51432 c 2.562242,-0.45372 5.084447,-0.45372 7.593308,0 0.8007,0.1468 1.321155,0.6806 1.481295,1.4813 0.48042,2.53556 0.48042,5.05776 0,7.57996 -0.16014,0.80071 -0.680595,1.41457 -1.481295,1.48129 -2.508861,0.22687 -5.031066,0.22687 -7.593308,0 -0.800699,-0.0667 -1.3878791,-0.66724 -1.4679498,-1.48129 -0.29359,-2.5222 -0.3469692,-5.0444 0,-7.57996 0.1067609,-0.8007 0.6672508,-1.3345 1.4679498,-1.4813 z"
       class="fil2" />
    <path
       style="clip-rule:evenodd;fill:#cc191c;fill-rule:evenodd;stroke-width:0.013345;image-rendering:optimizeQuality;shape-rendering:geometricPrecision;text-rendering:geometricPrecision"
       inkscape:connector-curvature="0"
       id="path8253"
       d="m 10.727914,117.3008 c 2.562241,-0.45372 5.084446,-0.46707 7.593306,0 0.800701,0.14679 1.321155,0.6806 1.481295,1.46795 0.480421,2.53556 0.480421,5.05776 0,7.59331 -0.16014,0.8007 -0.680594,1.40122 -1.481295,1.48129 -2.50886,0.22687 -5.031065,0.22687 -7.593306,0 -0.8007005,-0.0801 -1.3878805,-0.68059 -1.4679499,-1.48129 -0.29359,-2.53555 -0.3469704,-5.05775 0,-7.59331 0.106761,-0.8007 0.6672494,-1.3345 1.4679499,-1.46795 z"
       class="fil47" />
    <path
       style="clip-rule:evenodd;fill:#ff6595;fill-rule:evenodd;stroke-width:0.013345;image-rendering:optimizeQuality;shape-rendering:geometricPrecision;text-rendering:geometricPrecision"
       inkscape:connector-curvature="0"
       id="path8255"
       d="m 10.727914,116.78035 c 2.562241,-0.45373 5.084446,-0.45373 7.593306,0 0.800701,0.1468 1.321155,0.68059 1.481295,1.4813 0.480421,2.5222 0.480421,5.05774 0,7.57996 -0.16014,0.80069 -0.680594,1.41457 -1.481295,1.48129 -2.50886,0.22687 -5.031065,0.22687 -7.593306,0 -0.8007005,-0.0667 -1.3878805,-0.66725 -1.4679499,-1.48129 -0.29359,-2.52222 -0.3469704,-5.05776 0,-7.57996 0.106761,-0.80071 0.6672494,-1.3345 1.4679499,-1.4813 z"
       class="fil48" />
    <path
       style="clip-rule:evenodd;fill:#fd628e;fill-rule:evenodd;stroke-width:0.013345;image-rendering:optimizeQuality;shape-rendering:geometricPrecision;text-rendering:geometricPrecision"
       inkscape:connector-curvature="0"
       id="path8259"
       d="m 10.781293,116.84708 c 2.522206,-0.44039 5.017722,-0.45374 7.486548,0 0.787354,0.14679 1.30781,0.68059 1.454605,1.46795 0.493766,2.49551 0.48042,4.99102 0,7.48654 -0.146795,0.78735 -0.653906,1.37454 -1.454605,1.45461 -2.468826,0.22687 -4.964342,0.22687 -7.486548,0 -0.800699,-0.0667 -1.3611901,-0.66726 -1.4546046,-1.45461 -0.2802449,-2.49552 -0.3336254,-4.99103 0,-7.48654 0.106761,-0.80071 0.6672508,-1.32116 1.4546046,-1.46795 z"
       class="fil49" />
    <path
       style="clip-rule:evenodd;fill:#fa5e87;fill-rule:evenodd;stroke-width:0.013345;image-rendering:optimizeQuality;shape-rendering:geometricPrecision;text-rendering:geometricPrecision"
       inkscape:connector-curvature="0"
       id="path8261"
       d="m 10.834674,116.9138 c 2.495515,-0.44039 4.950996,-0.44039 7.379787,0 0.787355,0.1468 1.294464,0.66725 1.441259,1.44126 0.480421,2.46882 0.467076,4.9243 0,7.39313 -0.146795,0.77401 -0.653904,1.36119 -1.441259,1.44126 -2.428791,0.21353 -4.884272,0.21353 -7.379787,0 -0.787356,-0.0801 -1.3478455,-0.65391 -1.44126,-1.44126 -0.2802449,-2.46883 -0.3336253,-4.92431 0,-7.39313 0.106761,-0.77401 0.667249,-1.29446 1.44126,-1.44126 z"
       class="fil50" />
    <path
       style="clip-rule:evenodd;fill:#f85b80;fill-rule:evenodd;stroke-width:0.013345;image-rendering:optimizeQuality;shape-rendering:geometricPrecision;text-rendering:geometricPrecision"
       inkscape:connector-curvature="0"
       id="path8263"
       d="m 10.888054,116.99387 c 2.45548,-0.44039 4.884271,-0.44039 7.286371,0 0.760666,0.13346 1.267776,0.6539 1.414571,1.41457 0.467075,2.42879 0.467075,4.85757 0,7.28637 -0.146795,0.76066 -0.64056,1.34785 -1.414571,1.41457 -2.4021,0.22687 -4.830891,0.22687 -7.286371,0 -0.77401,-0.0667 -1.3344999,-0.64056 -1.4279157,-1.41457 -0.2668998,-2.4288 -0.3202803,-4.85758 0,-7.28637 0.106761,-0.77401 0.6539057,-1.28113 1.4279157,-1.41457 z"
       class="fil51" />
    <path
       style="clip-rule:evenodd;fill:#f65879;fill-rule:evenodd;stroke-width:0.013345;image-rendering:optimizeQuality;shape-rendering:geometricPrecision;text-rendering:geometricPrecision"
       inkscape:connector-curvature="0"
       id="path8265"
       d="m 10.941433,117.0606 c 2.415446,-0.42704 4.817547,-0.44039 7.179613,0 0.760664,0.13345 1.25443,0.64055 1.401225,1.40122 0.467075,2.38875 0.45373,4.79085 0,7.17961 -0.146795,0.76066 -0.640561,1.3345 -1.401225,1.40123 -2.362066,0.21352 -4.764167,0.21352 -7.179613,0 -0.774009,-0.0667 -1.3211546,-0.64057 -1.401224,-1.40123 -0.2669011,-2.38876 -0.3336253,-4.79086 0,-7.17961 0.106761,-0.77401 0.640559,-1.26778 1.401224,-1.40122 z"
       class="fil52" />
    <path
       style="clip-rule:evenodd;fill:#f35572;fill-rule:evenodd;stroke-width:0.013345;image-rendering:optimizeQuality;shape-rendering:geometricPrecision;text-rendering:geometricPrecision"
       inkscape:connector-curvature="0"
       id="path8267"
       d="m 10.981469,117.12731 c 2.388755,-0.42703 4.750822,-0.42703 7.086197,0 0.74732,0.13345 1.241085,0.62722 1.38788,1.37455 0.45373,2.36206 0.440385,4.72412 0,7.08619 -0.146795,0.74732 -0.627215,1.30781 -1.38788,1.38788 -2.335375,0.21352 -4.697442,0.20018 -7.086197,0 -0.74732,-0.0667 -1.294465,-0.62722 -1.3745357,-1.38788 -0.2668998,-2.36207 -0.3202802,-4.72413 0,-7.08619 0.106761,-0.74733 0.6272157,-1.2411 1.3745357,-1.37455 z"
       class="fil53" />
    <path
       style="clip-rule:evenodd;fill:#f1516c;fill-rule:evenodd;stroke-width:0.013345;image-rendering:optimizeQuality;shape-rendering:geometricPrecision;text-rendering:geometricPrecision"
       inkscape:connector-curvature="0"
       id="path8269"
       d="m 11.034849,117.19404 c 2.362065,-0.41369 4.684097,-0.42703 6.992781,0 0.733975,0.13345 1.214396,0.62722 1.361191,1.3612 0.440385,2.32202 0.440385,4.65739 0,6.97943 -0.146795,0.73397 -0.627216,1.29447 -1.361191,1.36119 -2.308684,0.21352 -4.630716,0.21352 -6.992781,0 -0.74732,-0.0667 -1.2677756,-0.61387 -1.3611901,-1.36119 -0.253556,-2.32204 -0.3069351,-4.65741 0,-6.97943 0.106761,-0.74733 0.6272151,-1.22775 1.3611901,-1.3612 z"
       class="fil54" />
    <path
       style="clip-rule:evenodd;fill:#ee4e65;fill-rule:evenodd;stroke-width:0.013345;image-rendering:optimizeQuality;shape-rendering:geometricPrecision;text-rendering:geometricPrecision"
       inkscape:connector-curvature="0"
       id="path8271"
       d="m 11.088228,117.26076 c 2.322032,-0.41368 4.617372,-0.41368 6.886022,0 0.720631,0.13345 1.201051,0.61388 1.334501,1.34785 0.45373,2.29534 0.440385,4.59068 0,6.87268 -0.133451,0.73397 -0.600525,1.28112 -1.334501,1.34785 -2.26865,0.21352 -4.56399,0.20017 -6.886022,0 -0.733975,-0.0667 -1.254429,-0.61388 -1.3344997,-1.34785 -0.2668998,-2.282 -0.3202802,-4.57734 0,-6.87268 0.093416,-0.73397 0.6138707,-1.2144 1.3344997,-1.34785 z"
       class="fil55" />
    <path
       style="clip-rule:evenodd;fill:#ec4b5e;fill-rule:evenodd;stroke-width:0.013345;image-rendering:optimizeQuality;shape-rendering:geometricPrecision;text-rendering:geometricPrecision"
       inkscape:connector-curvature="0"
       id="path8273"
       d="m 11.141609,117.32749 c 2.281996,-0.40034 4.550646,-0.40034 6.779262,0 0.72063,0.13345 1.187705,0.61387 1.321155,1.32115 0.440385,2.26866 0.42704,4.52396 0,6.79262 -0.133452,0.70727 -0.600525,1.25442 -1.321155,1.32115 -2.228616,0.20018 -4.497266,0.20018 -6.779262,0 -0.72063,-0.0667 -1.2410857,-0.60053 -1.3211551,-1.32115 -0.2535546,-2.26866 -0.3069351,-4.52396 0,-6.79262 0.093416,-0.72062 0.6005251,-1.1877 1.3211551,-1.32115 z"
       class="fil56" />
    <path
       style="clip-rule:evenodd;fill:#ea4857;fill-rule:evenodd;stroke-width:0.013345;image-rendering:optimizeQuality;shape-rendering:geometricPrecision;text-rendering:geometricPrecision"
       inkscape:connector-curvature="0"
       id="path8275"
       d="m 11.194989,117.39421 c 2.255306,-0.38699 4.483921,-0.40034 6.685846,0 0.693941,0.13346 1.161017,0.60053 1.294466,1.30781 0.42704,2.22862 0.42704,4.45723 0,6.68586 -0.133451,0.69394 -0.58718,1.22773 -1.294466,1.29446 -2.21527,0.20018 -4.43054,0.20018 -6.685846,0 -0.720631,-0.0534 -1.2277401,-0.58717 -1.3078108,-1.29446 -0.2535547,-2.22863 -0.29359,-4.45724 0,-6.68586 0.093416,-0.70728 0.6005248,-1.17435 1.3078108,-1.30781 z"
       class="fil57" />
    <path
       style="clip-rule:evenodd;fill:#e74450;fill-rule:evenodd;stroke-width:0.013345;image-rendering:optimizeQuality;shape-rendering:geometricPrecision;text-rendering:geometricPrecision"
       inkscape:connector-curvature="0"
       id="path8277"
       d="m 11.248369,117.47428 c 2.215271,-0.40035 4.403851,-0.40035 6.579086,0 0.693941,0.12011 1.147671,0.58719 1.281121,1.28112 0.42704,2.18859 0.413695,4.39051 0,6.57909 -0.133451,0.69395 -0.58718,1.2144 -1.281121,1.28112 -2.175235,0.20018 -4.363815,0.20018 -6.579086,0 -0.707285,-0.0667 -1.214396,-0.58717 -1.2811201,-1.28112 -0.2535546,-2.18858 -0.3069351,-4.3905 0,-6.57909 0.093416,-0.70727 0.5871801,-1.16101 1.2811201,-1.28112 z"
       class="fil58" />
    <path
       style="clip-rule:evenodd;fill:#e54149;fill-rule:evenodd;stroke-width:0.013345;image-rendering:optimizeQuality;shape-rendering:geometricPrecision;text-rendering:geometricPrecision"
       inkscape:connector-curvature="0"
       id="path8279"
       d="m 11.288404,117.54101 c 2.188581,-0.38701 4.350471,-0.40035 6.485672,0 0.680594,0.12011 1.134324,0.57384 1.267776,1.25443 0.413694,2.16189 0.413694,4.32378 0,6.48567 -0.133452,0.68061 -0.573837,1.20105 -1.267776,1.26778 -2.135201,0.18683 -4.297091,0.18683 -6.485672,0 -0.680595,-0.0667 -1.17436,-0.57383 -1.254431,-1.26778 -0.2402093,-2.16189 -0.2935898,-4.32378 0,-6.48567 0.09342,-0.68059 0.573836,-1.13432 1.254431,-1.25443 z"
       class="fil59" />
    <path
       style="clip-rule:evenodd;fill:#ffffff;fill-rule:evenodd;stroke-width:0.013345;image-rendering:optimizeQuality;shape-rendering:geometricPrecision;text-rendering:geometricPrecision"
       inkscape:connector-curvature="0"
       id="path8283"
       d="m 10.647843,117.12731 c 0.547146,0 1.000877,0.45374 1.000877,1.00089 0,0.54713 -0.453731,1.00087 -1.000877,1.00087 -0.547144,0 -1.0008743,-0.45374 -1.0008743,-1.00087 0,-0.54715 0.4537303,-1.00089 1.0008743,-1.00089 z"
       class="fil3" />
    <path
       style="clip-rule:evenodd;fill:#ffffff;fill-rule:evenodd;stroke-width:0.013345;image-rendering:optimizeQuality;shape-rendering:geometricPrecision;text-rendering:geometricPrecision"
       inkscape:connector-curvature="0"
       id="path8285"
       d="m 12.182519,116.70028 c 0.2669,0 0.493766,0.22687 0.493766,0.5071 0,0.2669 -0.226866,0.49377 -0.493766,0.49377 -0.280245,0 -0.507111,-0.22687 -0.507111,-0.49377 0,-0.28023 0.226866,-0.5071 0.507111,-0.5071 z"
       class="fil3" />
    <path
       style="clip-rule:evenodd;fill:#ffffff;fill-rule:evenodd;stroke-width:0.013345;image-rendering:optimizeQuality;shape-rendering:geometricPrecision;text-rendering:geometricPrecision"
       inkscape:connector-curvature="0"
       id="path8287"
       d="m 18.548086,125.89499 c 0.333624,0 0.600525,0.26689 0.600525,0.60052 0,0.32028 -0.266901,0.58718 -0.600525,0.58718 -0.32028,0 -0.600525,-0.2669 -0.600525,-0.58718 0,-0.33363 0.280245,-0.60052 0.600525,-0.60052 z"
       class="fil3" />
    <path
       style="clip-rule:evenodd;fill:none;fill-rule:evenodd;stroke:#cc191c;stroke-width:0.6768586;image-rendering:optimizeQuality;shape-rendering:geometricPrecision;text-rendering:geometricPrecision"
       inkscape:connector-curvature="0"
       id="path8293"
       d="m 16.813235,119.59615 c 0.733975,0.61386 1.241086,1.09428 1.241086,2.58892 0,1.49464 -1.494641,3.33626 -3.336252,3.33626 -1.84161,0 -3.336251,-1.49464 -3.336251,-3.33626 0,-0.58718 0.160141,-1.12097 0.413697,-1.6014 l -0.707287,-0.60052 c -0.213519,-0.17348 -0.173485,-0.24021 0.06673,-0.32028 l 2.735726,-0.97419 c 0.520454,-0.18682 0.547145,-0.21351 0.440385,0.33363 l -0.533801,2.89586 c -0.05338,0.29359 -0.146795,0.25356 -0.360314,0.0801 l -0.707286,-0.61386 c -0.106761,0.2402 -0.160139,0.52045 -0.160139,0.80069 0,1.18771 0.960839,2.14855 2.148544,2.14855 1.187706,0 2.241961,-1.18771 2.148546,-2.14855 -0.09342,-0.96083 -0.146795,-1.21439 -0.72063,-1.6014 -0.173485,-0.13345 -0.16014,-0.28025 -0.05338,-0.44039 l 0.34697,-0.5071 c 0.09342,-0.1468 0.24021,-0.16014 0.37366,-0.04 z"
       class="fil18 str15" />
    <path
       style="clip-rule:evenodd;fill:#ffffff;fill-rule:evenodd;stroke-width:0.013345;image-rendering:optimizeQuality;shape-rendering:geometricPrecision;text-rendering:geometricPrecision"
       inkscape:connector-curvature="0"
       d="m 16.813235,119.59615 c 0.733975,0.61386 1.241086,1.09428 1.241086,2.58892 0,1.49464 -1.494641,3.33626 -3.336252,3.33626 -1.84161,0 -3.336251,-1.49464 -3.336251,-3.33626 0,-0.58718 0.160141,-1.12097 0.413697,-1.6014 l -0.707287,-0.60052 c -0.213519,-0.17348 -0.173485,-0.24021 0.06673,-0.32028 l 2.735726,-0.97419 c 0.520454,-0.18682 0.547145,-0.21351 0.440385,0.33363 l -0.533801,2.89586 c -0.05338,0.29359 -0.146795,0.25356 -0.360314,0.0801 l -0.707286,-0.61386 c -0.106761,0.2402 -0.160139,0.52045 -0.160139,0.80069 0,1.18771 0.960839,2.14855 2.148544,2.14855 1.187706,0 2.241961,-1.18771 2.148546,-2.14855 -0.09342,-0.96083 -0.146795,-1.21439 -0.72063,-1.6014 -0.173485,-0.13345 -0.16014,-0.28025 -0.05338,-0.44039 l 0.34697,-0.5071 c 0.09342,-0.1468 0.24021,-0.16014 0.37366,-0.04 z"
       class="fil3"
       id="path8295" />
    <path
       style="clip-rule:evenodd;fill:#000000;fill-opacity:0.10196102;fill-rule:evenodd;stroke-width:0.013345;image-rendering:optimizeQuality;shape-rendering:geometricPrecision;text-rendering:geometricPrecision"
       inkscape:connector-curvature="0"
       id="path8297"
       d="m 14.718069,125.08094 c -1.76154,0 -3.216144,-1.37454 -3.322905,-3.10939 0,0.0667 -0.01335,0.13345 -0.01335,0.21352 0,1.84162 1.494641,3.33626 3.336251,3.33626 1.841611,0 3.336252,-1.84162 3.336252,-3.33626 0,-0.0934 0,-0.18683 -0.01335,-0.2669 -0.09342,1.45461 -1.54802,3.16277 -3.322906,3.16277 z"
       class="fil1" />
  </g>
</svg>
