<?xml version="1.0" encoding="UTF-8" standalone="no"?>
<svg
   xmlns:osb="http://www.openswatchbook.org/uri/2009/osb"
   xmlns:dc="http://purl.org/dc/elements/1.1/"
   xmlns:cc="http://creativecommons.org/ns#"
   xmlns:rdf="http://www.w3.org/1999/02/22-rdf-syntax-ns#"
   xmlns:svg="http://www.w3.org/2000/svg"
   xmlns="http://www.w3.org/2000/svg"
   xmlns:sodipodi="http://sodipodi.sourceforge.net/DTD/sodipodi-0.dtd"
   xmlns:inkscape="http://www.inkscape.org/namespaces/inkscape"
   id="svg45344"
   version="1.1"
   viewBox="0 0 9.5166084 9.9536722"
   height="33.177803"
   width="31.720957"
   sodipodi:docname="settings.svg"
   inkscape:version="0.92.3 (2405546, 2018-03-11)">
  <sodipodi:namedview
     pagecolor="#ffffff"
     bordercolor="#666666"
     borderopacity="1"
     objecttolerance="10"
     gridtolerance="10"
     guidetolerance="10"
     inkscape:pageopacity="0"
     inkscape:pageshadow="2"
     inkscape:window-width="1920"
     inkscape:window-height="1053"
     id="namedview834"
     showgrid="false"
     units="px"
     fit-margin-top="0"
     fit-margin-left="0"
     fit-margin-right="0"
     fit-margin-bottom="0"
     inkscape:showpageshadow="false"
     showborder="true"
     scale-x="0.30001"
     inkscape:zoom="13.955272"
     inkscape:cx="17.984135"
     inkscape:cy="17.234004"
     inkscape:window-x="0"
     inkscape:window-y="0"
     inkscape:window-maximized="1"
     inkscape:current-layer="svg45344" />
  <defs
     id="defs45338">
    <linearGradient
       osb:paint="solid"
       id="linearGradient47621">
      <stop
         id="stop47619"
         offset="0"
         style="stop-color:#34aff3;stop-opacity:1;" />
    </linearGradient>
  </defs>
  <metadata
     id="metadata45341">
    <rdf:RDF>
      <cc:Work
         rdf:about="">
        <dc:format>image/svg+xml</dc:format>
        <dc:type
           rdf:resource="http://purl.org/dc/dcmitype/StillImage" />
        <dc:title></dc:title>
      </cc:Work>
    </rdf:RDF>
  </metadata>
  <g
     transform="translate(-10.167266,-117.7863)"
     id="layer1">
    <g
       transform="translate(17.820196,1.964431)"
       id="g22738">
      <path
         style="clip-rule:evenodd;fill:#000000;fill-opacity:0.10196102;fill-rule:evenodd;stroke-width:0.00999991;image-rendering:optimizeQuality;shape-rendering:geometricPrecision;text-rendering:geometricPrecision"
         id="path8009"
         d="m -6.0137539,116.82312 c 2.139981,-0.37999 4.249962,-0.38999 6.33994432,0 0.669994,0.12 1.09998998,0.56 1.22998898,1.22999 0.409996,2.10998 0.409996,4.22997 0,6.33995 -0.119999,0.66999 -0.55999498,1.16999 -1.22998898,1.23999 -2.08998232,0.18999 -4.19996332,0.18999 -6.33994432,0 -0.679994,-0.06 -1.1599898,-0.56 -1.2399891,-1.23999 -0.2299979,-2.10998 -0.2799975,-4.22997 0,-6.33995 0.089999,-0.66999 0.569995,-1.11999 1.2399891,-1.22999 z"
         class="fil1"
         inkscape:connector-curvature="0" />
      <path
         style="clip-rule:evenodd;fill:#ffffff;fill-rule:evenodd;stroke-width:0.00999991;image-rendering:optimizeQuality;shape-rendering:geometricPrecision;text-rendering:geometricPrecision"
         id="path8013"
         d="m -6.2237521,116.10313 c 2.1399812,-0.37 4.2499622,-0.38 6.33994352,0 0.669995,0.13 1.10999098,0.56999 1.22998998,1.23999 0.409996,2.10998 0.409996,4.22996 0,6.33994 -0.119999,0.67 -0.54999598,1.16999 -1.22998998,1.22999 -2.08998132,0.2 -4.19996232,0.19 -6.33994352,0 -0.679994,-0.06 -1.1599897,-0.55999 -1.2299891,-1.22999 -0.2399979,-2.10998 -0.2899974,-4.22996 0,-6.33994 0.089999,-0.67 0.559995,-1.11999 1.2299891,-1.23999 z"
         class="fil3"
         inkscape:connector-curvature="0" />
      <path
         style="clip-rule:evenodd;fill:#cc191c;fill-rule:evenodd;stroke-width:0.00999991;image-rendering:optimizeQuality;shape-rendering:geometricPrecision;text-rendering:geometricPrecision"
         id="path8017"
         d="m -5.8937549,116.55313 c 1.919983,-0.34 3.809966,-0.34 5.68994932,0 0.599995,0.11 0.989992,0.50999 1.10999,1.10999 0.35999698,1.88998 0.35999698,3.78996 0,5.67995 -0.119998,0.59999 -0.509995,1.05999 -1.10999,1.10999 -1.87998332,0.16999 -3.76996632,0.16999 -5.68994932,0 -0.5999948,-0.05 -1.0399909,-0.5 -1.0999904,-1.10999 -0.219998,-1.88999 -0.2599977,-3.78997 0,-5.67995 0.079999,-0.6 0.4999956,-0.99999 1.0999904,-1.10999 z"
         class="fil47"
         inkscape:connector-curvature="0" />
      <path
         style="clip-rule:evenodd;fill:#fd628e;fill-rule:evenodd;stroke-width:0.00999991;image-rendering:optimizeQuality;shape-rendering:geometricPrecision;text-rendering:geometricPrecision"
         id="path8023"
         d="m -5.8537559,116.22313 c 1.889984,-0.34 3.759967,-0.34 5.60995132,0 0.589995,0.11 0.979991,0.49999 1.08999,1.08999 0.36999698,1.86998 0.35999698,3.73997 0,5.60995 -0.109999,0.58999 -0.489996,1.03999 -1.08999,1.08999 -1.84998432,0.17 -3.71996732,0.17 -5.60995132,0 -0.5999942,-0.05 -1.0199905,-0.49 -1.0899898,-1.08999 -0.2099982,-1.86998 -0.2499978,-3.73997 0,-5.60995 0.079999,-0.59 0.4999955,-0.98999 1.0899898,-1.08999 z"
         class="fil49"
         inkscape:connector-curvature="0" />
      <path
         style="clip-rule:evenodd;fill:#f65879;fill-rule:evenodd;stroke-width:0.00999991;image-rendering:optimizeQuality;shape-rendering:geometricPrecision;text-rendering:geometricPrecision"
         id="path8029"
         d="m -5.7337569,116.37313 c 1.809984,-0.32 3.609968,-0.32 5.37995332,0 0.569994,0.11 0.939991,0.48999 1.04999,1.04999 0.34999698,1.79998 0.33999698,3.58997 0,5.38995 -0.109999,0.56 -0.479996,0.98999 -1.04999,1.03999 -1.76998532,0.17 -3.56996932,0.17 -5.37995332,0 -0.5799944,-0.05 -0.9899908,-0.46999 -1.0499903,-1.03999 -0.1999982,-1.79998 -0.2499977,-3.58997 0,-5.38995 0.079999,-0.57 0.4799958,-0.94999 1.0499903,-1.04999 z"
         class="fil52"
         inkscape:connector-curvature="0" />
      <path
         style="clip-rule:evenodd;fill:#ec4b5e;fill-rule:evenodd;stroke-width:0.00999991;image-rendering:optimizeQuality;shape-rendering:geometricPrecision;text-rendering:geometricPrecision"
         id="path8037"
         d="m -5.5837579,116.58313 c 1.709985,-0.3 3.40997,-0.31 5.07995532,0 0.539995,0.1 0.889992,0.44999 0.989991,0.98999 0.329997,1.68998 0.319997,3.38997 0,5.07995 -0.1,0.54 -0.449996,0.93999 -0.989991,0.98999 -1.66998532,0.16 -3.36997032,0.15 -5.07995532,0 -0.5399951,-0.05 -0.9299916,-0.44999 -0.9899911,-0.98999 -0.1899983,-1.68998 -0.229998,-3.38997 0,-5.07995 0.069999,-0.54 0.449996,-0.9 0.9899911,-0.98999 z"
         class="fil56"
         inkscape:connector-curvature="0" />
      <path
         style="clip-rule:evenodd;fill:#e74450;fill-rule:evenodd;stroke-width:0.00999991;image-rendering:optimizeQuality;shape-rendering:geometricPrecision;text-rendering:geometricPrecision"
         id="path8041"
         d="m -5.5037589,116.68312 c 1.659986,-0.28999 3.299971,-0.29999 4.92995732,0 0.519995,0.1 0.859992,0.44 0.959991,0.96 0.319997,1.64998 0.309997,3.28997 0,4.93995 -0.1,0.51 -0.439996,0.90999 -0.959991,0.95999 -1.62998632,0.15 -3.26997132,0.14 -4.92995732,0 -0.5299949,-0.05 -0.9099915,-0.43999 -0.9599911,-0.95999 -0.1899983,-1.64998 -0.2299979,-3.28997 0,-4.93995 0.069999,-0.52 0.4399961,-0.87 0.9599911,-0.96 z"
         class="fil58"
         inkscape:connector-curvature="0" />
      <path
         style="clip-rule:evenodd;fill:#e54149;fill-rule:evenodd;stroke-width:0.00999991;image-rendering:optimizeQuality;shape-rendering:geometricPrecision;text-rendering:geometricPrecision"
         id="path8043"
         d="m -5.4737589,116.73312 c 1.639986,-0.28999 3.259971,-0.28999 4.85995732,0 0.509995,0.1 0.849992,0.44 0.949992,0.95 0.309997,1.61998 0.309997,3.23997 0,4.85995 -0.1,0.51 -0.429997,0.89999 -0.949992,0.93999 -1.59998632,0.15 -3.21997132,0.15 -4.85995732,0 -0.509995,-0.04 -0.8799921,-0.42999 -0.9399915,-0.93999 -0.1799984,-1.61998 -0.2199981,-3.23997 0,-4.85995 0.069999,-0.52 0.4299965,-0.86 0.9399915,-0.95 z"
         class="fil59"
         inkscape:connector-curvature="0" />
      <path
         style="clip-rule:evenodd;fill:#ffffff;fill-rule:evenodd;stroke-width:0.00999991;image-rendering:optimizeQuality;shape-rendering:geometricPrecision;text-rendering:geometricPrecision"
         id="path8047"
         d="m -5.9537549,116.43313 c 0.409997,0 0.749994,0.32999 0.749994,0.74999 0,0.41 -0.339997,0.74999 -0.749994,0.74999 -0.409996,0 -0.749993,-0.33999 -0.749993,-0.74999 0,-0.42 0.339997,-0.74999 0.749993,-0.74999 z"
         class="fil3"
         inkscape:connector-curvature="0" />
      <path
         style="clip-rule:evenodd;fill:#ffffff;fill-rule:evenodd;stroke-width:0.00999991;image-rendering:optimizeQuality;shape-rendering:geometricPrecision;text-rendering:geometricPrecision"
         id="path8049"
         d="m -4.8037649,116.11313 c 0.199998,0 0.369997,0.17 0.369997,0.37 0,0.20999 -0.169999,0.36999 -0.369997,0.36999 -0.209998,0 -0.379996,-0.16 -0.379996,-0.36999 0,-0.2 0.169998,-0.37 0.379996,-0.37 z"
         class="fil3"
         inkscape:connector-curvature="0" />
      <path
         style="clip-rule:evenodd;fill:none;fill-rule:evenodd;stroke:#cc191c;stroke-width:0.50719553;image-rendering:optimizeQuality;shape-rendering:geometricPrecision;text-rendering:geometricPrecision"
         id="path8057"
         d="m -2.4237859,117.74312 c 0.239998,0.05 0.469996,0.14999 0.679994,0.27999 l 0.379997,-0.37999 c 0.07,-0.06 0.1699983,-0.06 0.2299983,0 l 0.47999502,0.46999 c 0.06,0.07 0.06,0.17 0,0.24 l -0.37999602,0.37 c 0.12999902,0.20999 0.22999802,0.43999 0.28999702,0.67999 h 0.539995 c 0.09,0 0.159999,0.08 0.159999,0.17 v 0.66999 c 0,0.09 -0.07,0.16 -0.159999,0.16 h -0.529995 c -0.06,0.25 -0.149999,0.48 -0.27999702,0.69 l 0.37999602,0.37999 c 0.06,0.06 0.06,0.17 0,0.23 l -0.47999602,0.47 c -0.06,0.07 -0.169998,0.07 -0.2299973,0 l -0.369997,-0.37 c -0.209998,0.13 -0.439996,0.23 -0.689994,0.29 v 0.52999 c 0,0.09 -0.07,0.17 -0.159999,0.17 h -0.669994 c -0.09,0 -0.169998,-0.08 -0.169998,-0.17 v -0.52999 c -0.239998,-0.05 -0.469996,-0.15 -0.679994,-0.28 l -0.379997,0.38 c -0.07,0.07 -0.169998,0.07 -0.229998,0 l -0.479996,-0.47 c -0.06,-0.07 -0.06,-0.17 0,-0.23 l 0.379997,-0.37999 c -0.129999,-0.21 -0.229998,-0.44 -0.289997,-0.68 h -0.539996 c -0.09,0 -0.159998,-0.08 -0.159998,-0.17 v -0.66999 c 0,-0.09 0.07,-0.16 0.159998,-0.16 h 0.529996 c 0.06,-0.25 0.149998,-0.48 0.279997,-0.68999 l -0.379996,-0.38 c -0.06,-0.06 -0.06,-0.16 0,-0.23 l 0.479995,-0.46999 c 0.06,-0.07 0.169999,-0.07 0.229998,0 l 0.379997,0.36999 c 0.199998,-0.13 0.429996,-0.23 0.679994,-0.28999 v -0.53 c 0,-0.09 0.07,-0.16 0.159998,-0.16 h 0.669994 c 0.09,0 0.169999,0.07 0.169999,0.16 z m -0.489996,1.23998 c 0.519996,0 0.939992,0.42 0.939992,0.94 0,0.50999 -0.419996,0.92999 -0.939992,0.92999 -0.519995,0 -0.939991,-0.42 -0.939991,-0.92999 0,-0.52 0.419996,-0.94 0.939991,-0.94 z"
         class="fil18 str15"
         inkscape:connector-curvature="0" />
      <path
         style="clip-rule:evenodd;fill:#ffffff;fill-rule:evenodd;stroke-width:0.00999991;image-rendering:optimizeQuality;shape-rendering:geometricPrecision;text-rendering:geometricPrecision"
         d="m -2.4237859,117.74312 c 0.239998,0.05 0.469996,0.14999 0.679994,0.27999 l 0.379997,-0.37999 c 0.07,-0.06 0.1699983,-0.06 0.2299983,0 l 0.47999502,0.46999 c 0.06,0.07 0.06,0.17 0,0.24 l -0.37999602,0.37 c 0.12999902,0.20999 0.22999802,0.43999 0.28999702,0.67999 h 0.539995 c 0.09,0 0.159999,0.08 0.159999,0.17 v 0.66999 c 0,0.09 -0.07,0.16 -0.159999,0.16 h -0.529995 c -0.06,0.25 -0.149999,0.48 -0.27999702,0.69 l 0.37999602,0.37999 c 0.06,0.06 0.06,0.17 0,0.23 l -0.47999602,0.47 c -0.06,0.07 -0.169998,0.07 -0.2299973,0 l -0.369997,-0.37 c -0.209998,0.13 -0.439996,0.23 -0.689994,0.29 v 0.52999 c 0,0.09 -0.07,0.17 -0.159999,0.17 h -0.669994 c -0.09,0 -0.169998,-0.08 -0.169998,-0.17 v -0.52999 c -0.239998,-0.05 -0.469996,-0.15 -0.679994,-0.28 l -0.379997,0.38 c -0.07,0.07 -0.169998,0.07 -0.229998,0 l -0.479996,-0.47 c -0.06,-0.07 -0.06,-0.17 0,-0.23 l 0.379997,-0.37999 c -0.129999,-0.21 -0.229998,-0.44 -0.289997,-0.68 h -0.539996 c -0.09,0 -0.159998,-0.08 -0.159998,-0.17 v -0.66999 c 0,-0.09 0.07,-0.16 0.159998,-0.16 h 0.529996 c 0.06,-0.25 0.149998,-0.48 0.279997,-0.68999 l -0.379996,-0.38 c -0.06,-0.06 -0.06,-0.16 0,-0.23 l 0.479995,-0.46999 c 0.06,-0.07 0.169999,-0.07 0.229998,0 l 0.379997,0.36999 c 0.199998,-0.13 0.429996,-0.23 0.679994,-0.28999 v -0.53 c 0,-0.09 0.07,-0.16 0.159998,-0.16 h 0.669994 c 0.09,0 0.169999,0.07 0.169999,0.16 z m -0.489996,1.23998 c 0.519996,0 0.939992,0.42 0.939992,0.94 0,0.50999 -0.419996,0.92999 -0.939992,0.92999 -0.519995,0 -0.939991,-0.42 -0.939991,-0.92999 0,-0.52 0.419996,-0.94 0.939991,-0.94 z"
         class="fil3"
         id="path8059"
         inkscape:connector-curvature="0" />
    </g>
  </g>
</svg>
