<?xml version="1.0" encoding="UTF-8" standalone="no"?>
<!-- Created with Inkscape (http://www.inkscape.org/) -->

<svg
   xmlns:dc="http://purl.org/dc/elements/1.1/"
   xmlns:cc="http://creativecommons.org/ns#"
   xmlns:rdf="http://www.w3.org/1999/02/22-rdf-syntax-ns#"
   xmlns:svg="http://www.w3.org/2000/svg"
   xmlns="http://www.w3.org/2000/svg"
   xmlns:sodipodi="http://sodipodi.sourceforge.net/DTD/sodipodi-0.dtd"
   xmlns:inkscape="http://www.inkscape.org/namespaces/inkscape"
   width="9.5166054mm"
   height="9.9511719mm"
   viewBox="0 0 9.5166053 9.9511718"
   version="1.1"
   id="svg45344"
   inkscape:version="0.92.3 (2405546, 2018-03-11)"
   sodipodi:docname="button-play-idle.svg">
  <defs
     id="defs45338" />
  <sodipodi:namedview
     id="base"
     pagecolor="#ffffff"
     bordercolor="#666666"
     borderopacity="1.0"
     inkscape:pageopacity="0.0"
     inkscape:pageshadow="2"
     inkscape:zoom="7.9195959"
     inkscape:cx="-4.723433"
     inkscape:cy="17.010742"
     inkscape:document-units="mm"
     inkscape:current-layer="layer1"
     showgrid="false"
     fit-margin-top="0"
     fit-margin-left="0"
     fit-margin-right="0"
     fit-margin-bottom="0"
     inkscape:window-width="1366"
     inkscape:window-height="708"
     inkscape:window-x="0"
     inkscape:window-y="32"
     inkscape:window-maximized="1" />
  <metadata
     id="metadata45341">
    <rdf:RDF>
      <cc:Work
         rdf:about="">
        <dc:format>image/svg+xml</dc:format>
        <dc:type
           rdf:resource="http://purl.org/dc/dcmitype/StillImage" />
        <dc:title></dc:title>
      </cc:Work>
    </rdf:RDF>
  </metadata>
  <g
     inkscape:label="Capa 1"
     inkscape:groupmode="layer"
     id="layer1"
     transform="translate(-7.7365475,-105.57051)">
    <path
       style="clip-rule:evenodd;fill:#000000;fill-opacity:0.10196102;fill-rule:evenodd;stroke-width:0.00999991;image-rendering:optimizeQuality;shape-rendering:geometricPrecision;text-rendering:geometricPrecision"
       inkscape:connector-curvature="0"
       id="path2185"
       d="m 9.3757232,106.56926 c 2.1399808,-0.37999 4.2499618,-0.37999 6.3399438,0 0.669994,0.12 1.09999,0.57 1.229989,1.22999 0.409996,2.11998 0.409996,4.22996 0,6.33994 -0.119999,0.67 -0.559995,1.17999 -1.229989,1.23999 -2.089982,0.19 -4.199963,0.19 -6.3399438,0 -0.6799939,-0.06 -1.1599897,-0.55999 -1.2399889,-1.23999 -0.229998,-2.10998 -0.2799975,-4.21996 0,-6.33994 0.089999,-0.66999 0.5699949,-1.10999 1.2399889,-1.22999 z"
       class="fil1"
       inkscape:export-xdpi="84.231285"
       inkscape:export-ydpi="84.231285" />
    <path
       style="clip-rule:evenodd;fill:#ffffff;fill-rule:evenodd;stroke-width:0.00999991;image-rendering:optimizeQuality;shape-rendering:geometricPrecision;text-rendering:geometricPrecision"
       inkscape:connector-curvature="0"
       id="path2189"
       d="m 9.1657251,105.85927 c 2.1399809,-0.38 4.2499629,-0.39 6.3399439,0 0.669994,0.12 1.10999,0.56999 1.229989,1.22999 0.409996,2.11998 0.409996,4.22996 0,6.33994 -0.119999,0.66999 -0.549995,1.17999 -1.229989,1.23999 -2.089981,0.19 -4.199963,0.19 -6.3399439,0 -0.6799939,-0.06 -1.1599897,-0.56 -1.2299891,-1.23999 -0.2399978,-2.10998 -0.2899974,-4.21996 0,-6.33994 0.089999,-0.67 0.5599951,-1.10999 1.2299891,-1.22999 z"
       class="fil3"
       inkscape:export-xdpi="84.231285"
       inkscape:export-ydpi="84.231285" />
    <path
       style="clip-rule:evenodd;fill:#cc191c;fill-rule:evenodd;stroke-width:0.00999991;image-rendering:optimizeQuality;shape-rendering:geometricPrecision;text-rendering:geometricPrecision"
       inkscape:connector-curvature="0"
       id="path2193"
       d="m 9.4957222,106.30926 c 1.9199828,-0.33999 3.8099658,-0.34999 5.6899498,0 0.599994,0.11 0.989991,0.5 1.10999,1.09999 0.359997,1.89999 0.359997,3.78997 0,5.68995 -0.119999,0.6 -0.509996,1.04999 -1.10999,1.10999 -1.879984,0.17 -3.769967,0.17 -5.6899498,0 -0.5999947,-0.06 -1.0399908,-0.50999 -1.0999902,-1.10999 -0.2199981,-1.89998 -0.2599977,-3.78996 0,-5.68995 0.079999,-0.59999 0.4999955,-0.99999 1.0999902,-1.09999 z"
       class="fil47"
       inkscape:export-xdpi="84.231285"
       inkscape:export-ydpi="84.231285" />
    <path
       style="clip-rule:evenodd;fill:#ec4b5e;fill-rule:evenodd;stroke-width:0.00999991;image-rendering:optimizeQuality;shape-rendering:geometricPrecision;text-rendering:geometricPrecision"
       inkscape:connector-curvature="0"
       id="path2213"
       d="m 9.8057194,106.32926 c 1.7099846,-0.29999 3.4099696,-0.30999 5.0799546,0 0.539995,0.1 0.889992,0.46 0.989992,0.99 0.329997,1.69998 0.319997,3.38997 0,5.08995 -0.1,0.53 -0.449997,0.93999 -0.989992,0.98999 -1.669985,0.15 -3.36997,0.15 -5.0799546,0 -0.5399952,-0.05 -0.9299917,-0.44999 -0.9899912,-0.98999 -0.1899983,-1.69998 -0.2299979,-3.38997 0,-5.08995 0.069999,-0.54 0.449996,-0.89 0.9899912,-0.99 z"
       class="fil56"
       inkscape:export-xdpi="84.231285"
       inkscape:export-ydpi="84.231285" />
    <path
       style="clip-rule:evenodd;fill:#e54149;fill-rule:evenodd;stroke-width:0.00999991;image-rendering:optimizeQuality;shape-rendering:geometricPrecision;text-rendering:geometricPrecision"
       inkscape:connector-curvature="0"
       id="path2219"
       d="m 9.9157184,106.48926 c 1.6399856,-0.28999 3.2599716,-0.29999 4.8599566,0 0.509996,0.09 0.849993,0.43 0.949992,0.93999 0.309997,1.61999 0.309997,3.23998 0,4.85996 -0.1,0.51 -0.429996,0.89999 -0.949992,0.94999 -1.599985,0.14 -3.219971,0.14 -4.8599566,0 -0.5099955,-0.05 -0.8799922,-0.42999 -0.9399916,-0.94999 -0.1799984,-1.61998 -0.2199981,-3.23997 0,-4.85996 0.069999,-0.50999 0.4299961,-0.84999 0.9399916,-0.93999 z"
       class="fil59"
       inkscape:export-xdpi="84.231285"
       inkscape:export-ydpi="84.231285" />
    <path
       style="clip-rule:evenodd;fill:#ffffff;fill-opacity:0.29019602;fill-rule:evenodd;stroke-width:0.00999991;image-rendering:optimizeQuality;shape-rendering:geometricPrecision;text-rendering:geometricPrecision"
       inkscape:connector-curvature="0"
       id="path2221"
       d="m 9.4957222,105.91927 c 1.9199828,-0.34 3.8099658,-0.34 5.6899498,0 0.599994,0.11 0.989991,0.50999 1.10999,1.10999 0.159998,0.85999 0.249998,1.70998 0.269998,2.56997 -3.559969,-1.44998 -5.949948,2.42998 -8.3499265,-0.01 0.01,-0.85999 0.059999,-1.70998 0.1799985,-2.55997 0.079999,-0.61 0.4999955,-0.99999 1.0999902,-1.10999 z"
       class="fil17"
       inkscape:export-xdpi="84.231285"
       inkscape:export-ydpi="84.231285" />
    <path
       style="clip-rule:evenodd;fill:#ffffff;fill-rule:evenodd;stroke-width:0.00999991;image-rendering:optimizeQuality;shape-rendering:geometricPrecision;text-rendering:geometricPrecision"
       inkscape:connector-curvature="0"
       id="path2223"
       d="m 9.4357227,106.17927 c 0.4099963,0 0.7499933,0.33999 0.7499933,0.74999 0,0.41 -0.339997,0.74999 -0.7499933,0.74999 -0.4099964,0 -0.7499933,-0.33999 -0.7499933,-0.74999 0,-0.41 0.3399969,-0.74999 0.7499933,-0.74999 z"
       class="fil3"
       inkscape:export-xdpi="84.231285"
       inkscape:export-ydpi="84.231285" />
    <path
       style="clip-rule:evenodd;fill:#ffffff;fill-rule:evenodd;stroke-width:0.00999991;image-rendering:optimizeQuality;shape-rendering:geometricPrecision;text-rendering:geometricPrecision"
       inkscape:connector-curvature="0"
       id="path2225"
       d="m 10.585713,105.85927 c 0.199998,0 0.369996,0.17 0.369996,0.36999 0,0.21 -0.169998,0.38 -0.369996,0.38 -0.209999,0 -0.379997,-0.17 -0.379997,-0.38 0,-0.19999 0.169998,-0.36999 0.379997,-0.36999 z"
       class="fil3"
       inkscape:export-xdpi="84.231285"
       inkscape:export-ydpi="84.231285" />
    <path
       style="clip-rule:evenodd;fill:#ffffff;fill-rule:evenodd;stroke-width:0.00999991;image-rendering:optimizeQuality;shape-rendering:geometricPrecision;text-rendering:geometricPrecision"
       inkscape:connector-curvature="0"
       id="path2227"
       d="m 15.35567,112.74921 c 0.249998,0 0.449996,0.2 0.449996,0.43999 0,0.25 -0.199998,0.45 -0.449996,0.45 -0.249998,0 -0.449996,-0.2 -0.449996,-0.45 0,-0.23999 0.199998,-0.43999 0.449996,-0.43999 z"
       class="fil3"
       inkscape:export-xdpi="84.231285"
       inkscape:export-ydpi="84.231285" />
    <path
       style="clip-rule:evenodd;fill:#ffffff;fill-rule:evenodd;stroke-width:0.00999991;image-rendering:optimizeQuality;shape-rendering:geometricPrecision;text-rendering:geometricPrecision"
       inkscape:connector-curvature="0"
       id="path2233"
       d="m 10.975709,111.93921 c -0.299997,0.12 -0.559995,0.16 -0.569995,-0.33999 v -3.91997 c 0,-0.32 0.159999,-0.38999 0.429996,-0.28 l 3.619968,2.08999 c 0.179998,0.14999 0.149999,0.29999 -0.01,0.43999 z"
       class="fil3"
       inkscape:export-xdpi="84.231285"
       inkscape:export-ydpi="84.231285" />
    <path
       style="clip-rule:evenodd;fill:#000000;fill-opacity:0.10196102;fill-rule:evenodd;stroke-width:0.00999991;image-rendering:optimizeQuality;shape-rendering:geometricPrecision;text-rendering:geometricPrecision"
       inkscape:connector-curvature="0"
       id="path2235"
       d="m 11.275706,111.35922 c -0.309997,0.12 -0.569994,0.16 -0.569994,-0.34 v -3.65997 c -0.05,-0.01 -0.08,-0.01 -0.119999,0 -0.05,0 -0.1,0.03 -0.129999,0.08 -0.03,0.05 -0.05,0.13 -0.05,0.24 v 3.91997 c 0,0.17 0.03,0.27999 0.09,0.33999 0.04,0.05 0.1,0.08 0.179998,0.07 0.08,0 0.189998,-0.03 0.299997,-0.07 l 3.469969,-2.00998 c 0.159999,-0.13 0.189998,-0.28 0.03,-0.41999 z"
       class="fil1"
       inkscape:export-xdpi="84.231285"
       inkscape:export-ydpi="84.231285" />
    <path
       style="clip-rule:evenodd;fill:#000000;fill-opacity:0.10196102;fill-rule:evenodd;stroke-width:0.00999991;image-rendering:optimizeQuality;shape-rendering:geometricPrecision;text-rendering:geometricPrecision"
       inkscape:connector-curvature="0"
       id="path2185-3"
       d="m 9.2420885,118.39594 c 2.1399805,-0.38 4.2499625,-0.38 6.3399435,0 0.669994,0.12 1.09999,0.56999 1.229989,1.22999 0.409997,2.11998 0.409997,4.22996 0,6.33994 -0.119999,0.67 -0.559995,1.17999 -1.229989,1.23999 -2.089981,0.19 -4.199963,0.19 -6.3399435,0 -0.679994,-0.06 -1.1599897,-0.55999 -1.239989,-1.23999 -0.2299979,-2.10998 -0.2799975,-4.21996 0,-6.33994 0.089999,-0.67 0.5699949,-1.10999 1.239989,-1.22999 z"
       class="fil1"
       inkscape:export-xdpi="84.231255"
       inkscape:export-ydpi="84.231255" />
    <path
       style="clip-rule:evenodd;fill:#ffffff;fill-rule:evenodd;stroke-width:0.00999991;image-rendering:optimizeQuality;shape-rendering:geometricPrecision;text-rendering:geometricPrecision"
       inkscape:connector-curvature="0"
       id="path2189-6"
       d="m 9.0320904,117.68594 c 2.1399806,-0.37999 4.2499626,-0.38999 6.3399436,0 0.669994,0.12 1.10999,0.57 1.229989,1.22999 0.409996,2.11999 0.409996,4.22997 0,6.33995 -0.119999,0.66999 -0.549995,1.17999 -1.229989,1.23999 -2.089981,0.18999 -4.199963,0.18999 -6.3399436,0 -0.679994,-0.06 -1.1599897,-0.56 -1.2299891,-1.23999 -0.2399979,-2.10998 -0.2899974,-4.21996 0,-6.33995 0.089999,-0.66999 0.559995,-1.10999 1.2299891,-1.22999 z"
       class="fil3"
       inkscape:export-xdpi="84.231255"
       inkscape:export-ydpi="84.231255" />
    <path
       style="clip-rule:evenodd;fill:#f2f2f2;fill-rule:evenodd;stroke-width:0.00999991;image-rendering:optimizeQuality;shape-rendering:geometricPrecision;text-rendering:geometricPrecision"
       inkscape:connector-curvature="0"
       id="path2193-7"
       d="m 9.3620875,118.13594 c 1.9199825,-0.34 3.8099665,-0.35 5.6899495,0 0.599994,0.11 0.989991,0.5 1.10999,1.09999 0.359997,1.89998 0.359997,3.78997 0,5.68995 -0.119999,0.6 -0.509996,1.04999 -1.10999,1.10999 -1.879983,0.17 -3.769967,0.17 -5.6899495,0 -0.5999947,-0.06 -1.0399908,-0.50999 -1.0999903,-1.10999 -0.219998,-1.89998 -0.2599977,-3.78997 0,-5.68995 0.079999,-0.59999 0.4999956,-0.99999 1.0999903,-1.09999 z"
       class="fil47"
       inkscape:export-xdpi="84.231255"
       inkscape:export-ydpi="84.231255" />
    <path
       style="clip-rule:evenodd;fill:#ec4b5e;fill-rule:evenodd;stroke-width:0.00999991;image-rendering:optimizeQuality;shape-rendering:geometricPrecision;text-rendering:geometricPrecision"
       inkscape:connector-curvature="0"
       id="path2213-5"
       d="m 9.6720847,118.15594 c 1.7099843,-0.3 3.4099693,-0.31 5.0799553,0 0.539995,0.1 0.889992,0.46 0.989991,0.98999 0.329997,1.69999 0.319997,3.38997 0,5.08996 -0.1,0.52999 -0.449996,0.93999 -0.989991,0.98999 -1.669986,0.15 -3.369971,0.15 -5.0799553,0 -0.5399952,-0.05 -0.9299917,-0.45 -0.9899912,-0.98999 -0.1899983,-1.69999 -0.229998,-3.38997 0,-5.08996 0.069999,-0.53999 0.449996,-0.88999 0.9899912,-0.98999 z"
       class="fil56"
       inkscape:export-xdpi="84.231255"
       inkscape:export-ydpi="84.231255" />
    <path
       style="clip-rule:evenodd;fill:#e54149;fill-rule:evenodd;stroke-width:0.00999991;image-rendering:optimizeQuality;shape-rendering:geometricPrecision;text-rendering:geometricPrecision"
       inkscape:connector-curvature="0"
       id="path2219-3"
       d="m 9.7820837,118.31594 c 1.6399853,-0.29 3.2599713,-0.3 4.8599563,0 0.509996,0.09 0.849993,0.43 0.949992,0.93999 0.309997,1.61999 0.309997,3.23997 0,4.85996 -0.1,0.50999 -0.429996,0.89999 -0.949992,0.94999 -1.599985,0.14 -3.219971,0.14 -4.8599563,0 -0.5099955,-0.05 -0.8799922,-0.43 -0.9399916,-0.94999 -0.1799984,-1.61999 -0.2199981,-3.23997 0,-4.85996 0.069999,-0.50999 0.4299961,-0.84999 0.9399916,-0.93999 z"
       class="fil59"
       inkscape:export-xdpi="84.231255"
       inkscape:export-ydpi="84.231255" />
    <path
       style="clip-rule:evenodd;fill:#ffffff;fill-opacity:0.29019602;fill-rule:evenodd;stroke-width:0.00999991;image-rendering:optimizeQuality;shape-rendering:geometricPrecision;text-rendering:geometricPrecision"
       inkscape:connector-curvature="0"
       id="path2221-5"
       d="m 9.3620875,117.74594 c 1.9199825,-0.33999 3.8099665,-0.33999 5.6899495,0 0.599994,0.11 0.989991,0.51 1.10999,1.10999 0.159999,0.86 0.249998,1.70999 0.269998,2.56998 -3.559969,-1.44999 -5.949948,2.42998 -8.3499262,-0.01 0.01,-0.85999 0.059999,-1.70998 0.1799984,-2.55998 0.079999,-0.60999 0.4999956,-0.99999 1.0999903,-1.10999 z"
       class="fil17"
       inkscape:export-xdpi="84.231255"
       inkscape:export-ydpi="84.231255" />
    <path
       style="clip-rule:evenodd;fill:#ffffff;fill-rule:evenodd;stroke-width:0.00999991;image-rendering:optimizeQuality;shape-rendering:geometricPrecision;text-rendering:geometricPrecision"
       inkscape:connector-curvature="0"
       id="path2223-6"
       d="m 9.302088,118.00594 c 0.4099963,0 0.749993,0.34 0.749993,0.75 0,0.40999 -0.3399967,0.74999 -0.749993,0.74999 -0.4099964,0 -0.7499934,-0.34 -0.7499934,-0.74999 0,-0.41 0.339997,-0.75 0.7499934,-0.75 z"
       class="fil3"
       inkscape:export-xdpi="84.231255"
       inkscape:export-ydpi="84.231255" />
    <path
       style="clip-rule:evenodd;fill:#ffffff;fill-rule:evenodd;stroke-width:0.00999991;image-rendering:optimizeQuality;shape-rendering:geometricPrecision;text-rendering:geometricPrecision"
       inkscape:connector-curvature="0"
       id="path2225-2"
       d="m 10.452078,117.68594 c 0.199998,0 0.369996,0.17 0.369996,0.37 0,0.21 -0.169998,0.38 -0.369996,0.38 -0.209998,0 -0.379997,-0.17 -0.379997,-0.38 0,-0.2 0.169999,-0.37 0.379997,-0.37 z"
       class="fil3"
       inkscape:export-xdpi="84.231255"
       inkscape:export-ydpi="84.231255" />
    <path
       style="clip-rule:evenodd;fill:#ffffff;fill-rule:evenodd;stroke-width:0.00999991;image-rendering:optimizeQuality;shape-rendering:geometricPrecision;text-rendering:geometricPrecision"
       inkscape:connector-curvature="0"
       id="path2227-9"
       d="m 15.222035,124.57588 c 0.249998,0 0.449996,0.2 0.449996,0.44 0,0.25 -0.199998,0.45 -0.449996,0.45 -0.249998,0 -0.449996,-0.2 -0.449996,-0.45 0,-0.24 0.199998,-0.44 0.449996,-0.44 z"
       class="fil3"
       inkscape:export-xdpi="84.231255"
       inkscape:export-ydpi="84.231255" />
    <path
       style="clip-rule:evenodd;fill:#ffffff;fill-rule:evenodd;stroke-width:0.00999991;image-rendering:optimizeQuality;shape-rendering:geometricPrecision;text-rendering:geometricPrecision"
       inkscape:connector-curvature="0"
       id="path2233-1"
       d="m 10.842074,123.76589 c -0.299997,0.12 -0.559995,0.16 -0.569995,-0.34 v -3.91996 c 0,-0.32 0.159999,-0.39 0.429996,-0.28 l 3.619968,2.08998 c 0.179999,0.15 0.149999,0.3 -0.01,0.44 z"
       class="fil3"
       inkscape:export-xdpi="84.231255"
       inkscape:export-ydpi="84.231255" />
    <path
       style="clip-rule:evenodd;fill:#000000;fill-opacity:0.10196102;fill-rule:evenodd;stroke-width:0.00999991;image-rendering:optimizeQuality;shape-rendering:geometricPrecision;text-rendering:geometricPrecision"
       inkscape:connector-curvature="0"
       id="path2235-2"
       d="m 11.142071,123.1859 c -0.309997,0.11999 -0.569994,0.15999 -0.569994,-0.34 v -3.65997 c -0.05,-0.01 -0.08,-0.01 -0.119999,0 -0.05,0 -0.1,0.03 -0.129999,0.08 -0.03,0.05 -0.05,0.13 -0.05,0.24 v 3.91996 c 0,0.17 0.03,0.28 0.09,0.34 0.04,0.05 0.1,0.08 0.179998,0.07 0.08,0 0.189998,-0.03 0.299997,-0.07 l 3.469969,-2.00998 c 0.159999,-0.13 0.189999,-0.28 0.03,-0.42 z"
       class="fil1"
       inkscape:export-xdpi="84.231255"
       inkscape:export-ydpi="84.231255" />
  </g>
</svg>
