<?xml version="1.0" encoding="UTF-8" standalone="no"?>
<!-- Created with Inkscape (http://www.inkscape.org/) -->

<svg
   xmlns:osb="http://www.openswatchbook.org/uri/2009/osb"
   xmlns:dc="http://purl.org/dc/elements/1.1/"
   xmlns:cc="http://creativecommons.org/ns#"
   xmlns:rdf="http://www.w3.org/1999/02/22-rdf-syntax-ns#"
   xmlns:svg="http://www.w3.org/2000/svg"
   xmlns="http://www.w3.org/2000/svg"
   xmlns:sodipodi="http://sodipodi.sourceforge.net/DTD/sodipodi-0.dtd"
   xmlns:inkscape="http://www.inkscape.org/namespaces/inkscape"
   width="12.699883mm"
   height="13.271502mm"
   viewBox="0 0 12.699883 13.271503"
   version="1.1"
   id="svg45344"
   inkscape:version="0.92.3 (2405546, 2018-03-11)"
   sodipodi:docname="facebbok.svg">
  <defs
     id="defs45338">
    <linearGradient
       id="linearGradient47621"
       osb:paint="solid">
      <stop
         style="stop-color:#34aff3;stop-opacity:1;"
         offset="0"
         id="stop47619" />
    </linearGradient>
  </defs>
  <sodipodi:namedview
     id="base"
     pagecolor="#ffffff"
     bordercolor="#666666"
     borderopacity="1.0"
     inkscape:pageopacity="0.0"
     inkscape:pageshadow="2"
     inkscape:zoom="5.6568542"
     inkscape:cx="1.450136"
     inkscape:cy="30.748232"
     inkscape:document-units="mm"
     inkscape:current-layer="layer1"
     showgrid="false"
     fit-margin-top="0"
     fit-margin-left="0"
     fit-margin-right="0"
     fit-margin-bottom="0"
     inkscape:window-width="1366"
     inkscape:window-height="708"
     inkscape:window-x="0"
     inkscape:window-y="32"
     inkscape:window-maximized="1"
     showguides="true"
     inkscape:guide-bbox="true">
    <sodipodi:guide
       position="1.1492693,13.773314"
       orientation="1,0"
       id="guide47761"
       inkscape:locked="false" />
  </sodipodi:namedview>
  <metadata
     id="metadata45341">
    <rdf:RDF>
      <cc:Work
         rdf:about="">
        <dc:format>image/svg+xml</dc:format>
        <dc:type
           rdf:resource="http://purl.org/dc/dcmitype/StillImage" />
        <dc:title></dc:title>
      </cc:Work>
    </rdf:RDF>
  </metadata>
  <g
     inkscape:label="Capa 1"
     inkscape:groupmode="layer"
     id="layer1"
     transform="translate(-8.8590689,-116.69167)">
    <path
       style="clip-rule:evenodd;fill:#000000;fill-opacity:0.10196102;fill-rule:evenodd;stroke-width:0.01334154;image-rendering:optimizeQuality;shape-rendering:geometricPrecision;text-rendering:geometricPrecision"
       inkscape:connector-curvature="0"
       id="path5323"
       d="m 11.054137,118.01915 c 2.841749,-0.50699 5.670156,-0.50699 8.45854,0 0.880542,0.1601 1.46757,0.76047 1.64101,1.65435 0.547003,2.81506 0.533661,5.63013 0,8.45854 -0.17344,0.88054 -0.747126,1.56096 -1.64101,1.64101 -2.788384,0.25349 -5.616791,0.25349 -8.45854,0 -0.907225,-0.08 -1.5476197,-0.74712 -1.6543517,-1.64101 -0.3201972,-2.82841 -0.3869042,-5.64348 0,-8.45854 0.120075,-0.90722 0.7604687,-1.49425 1.6543517,-1.65435 z"
       class="fil1" />
    <path
       style="clip-rule:evenodd;fill:#e6e6e6;fill-rule:evenodd;stroke-width:0.01334154;image-rendering:optimizeQuality;shape-rendering:geometricPrecision;text-rendering:geometricPrecision"
       inkscape:connector-curvature="0"
       id="path5325"
       d="m 10.773965,117.37876 c 2.841749,-0.50698 5.670156,-0.50698 8.45854,0 0.880542,0.16009 1.46757,0.76046 1.64101,1.65434 0.547003,2.81508 0.533661,5.63014 0,8.45855 -0.17344,0.88053 -0.747127,1.56096 -1.64101,1.64101 -2.788384,0.25349 -5.616791,0.25349 -8.45854,0 -0.9072254,-0.08 -1.54762,-0.74713 -1.6543519,-1.64101 -0.3201973,-2.82841 -0.373564,-5.64347 0,-8.45855 0.1200749,-0.90722 0.7604681,-1.49425 1.6543519,-1.65434 z"
       class="fil2" />
    <path
       style="clip-rule:evenodd;fill:#ffffff;fill-rule:evenodd;stroke-width:0.01334154;image-rendering:optimizeQuality;shape-rendering:geometricPrecision;text-rendering:geometricPrecision"
       inkscape:connector-curvature="0"
       id="path5327"
       d="m 10.773965,117.0719 c 2.841749,-0.50698 5.670156,-0.50698 8.45854,0 0.880542,0.1601 1.46757,0.76046 1.64101,1.65436 0.547003,2.81506 0.533661,5.63012 0,8.44519 -0.17344,0.89388 -0.747127,1.5743 -1.64101,1.65435 -2.788384,0.25349 -5.616791,0.25349 -8.45854,0 -0.9072254,-0.08 -1.54762,-0.74713 -1.6543519,-1.65435 -0.3201973,-2.81507 -0.373564,-5.63013 0,-8.44519 0.1200749,-0.90724 0.7604681,-1.49426 1.6543519,-1.65436 z"
       class="fil3" />
    <path
       style="clip-rule:evenodd;fill:#6179b6;fill-rule:evenodd;stroke-width:0.01334154;image-rendering:optimizeQuality;shape-rendering:geometricPrecision;text-rendering:geometricPrecision"
       inkscape:connector-curvature="0"
       id="path5331"
       d="m 11.214236,117.67226 c 2.561576,-0.4536 5.083128,-0.46694 7.577998,0 0.800492,0.14676 1.334154,0.68043 1.480911,1.48092 0.493638,2.52156 0.480296,5.0431 0,7.57799 -0.146757,0.8005 -0.667078,1.40087 -1.480911,1.48092 -2.49487,0.2268 -5.016422,0.2268 -7.577998,0 -0.813835,-0.08 -1.3875214,-0.68042 -1.4809117,-1.48092 -0.2801723,-2.53489 -0.333539,-5.05643 0,-7.57799 0.1067333,-0.81383 0.6804177,-1.3475 1.4809117,-1.48092 z"
       class="fil64" />
    <path
       style="clip-rule:evenodd;fill:#8d9bbe;fill-rule:evenodd;stroke-width:0.01334154;image-rendering:optimizeQuality;shape-rendering:geometricPrecision;text-rendering:geometricPrecision"
       inkscape:connector-curvature="0"
       id="path5333"
       d="m 11.214236,117.15195 c 2.561576,-0.45361 5.083128,-0.45361 7.577998,0 0.800492,0.14676 1.334154,0.68041 1.480911,1.48091 0.493638,2.53489 0.480296,5.05644 0,7.578 -0.146757,0.80049 -0.667078,1.41421 -1.480911,1.48091 -2.49487,0.22681 -5.016422,0.22681 -7.577998,0 -0.813835,-0.0667 -1.3875214,-0.66708 -1.4809117,-1.48091 -0.2801723,-2.52156 -0.333539,-5.04311 0,-7.578 0.1067333,-0.8005 0.6804177,-1.33415 1.4809117,-1.48091 z"
       class="fil65" />
    <path
       style="clip-rule:evenodd;fill:#8998bd;fill-rule:evenodd;stroke-width:0.01334154;image-rendering:optimizeQuality;shape-rendering:geometricPrecision;text-rendering:geometricPrecision"
       inkscape:connector-curvature="0"
       id="path5339"
       d="m 11.320968,117.29871 c 2.481528,-0.45362 4.949713,-0.45362 7.377874,0 0.77381,0.13342 1.294131,0.65373 1.440888,1.42755 0.480296,2.46818 0.466954,4.92302 0,7.39121 -0.146757,0.7738 -0.653736,1.36084 -1.440888,1.44089 -2.428161,0.21346 -4.896346,0.21346 -7.377874,0 -0.787152,-0.08 -1.3474965,-0.65374 -1.4408868,-1.44089 -0.2801722,-2.46819 -0.3335389,-4.92303 0,-7.39121 0.1067333,-0.77382 0.6537348,-1.29413 1.4408868,-1.42755 z"
       class="fil67" />
    <path
       style="clip-rule:evenodd;fill:#8796bd;fill-rule:evenodd;stroke-width:0.01334154;image-rendering:optimizeQuality;shape-rendering:geometricPrecision;text-rendering:geometricPrecision"
       inkscape:connector-curvature="0"
       id="path5341"
       d="m 11.374334,117.36542 c 2.454845,-0.44028 4.883006,-0.44028 7.271143,0 0.77381,0.13342 1.280788,0.65373 1.427545,1.4142 0.466954,2.42816 0.453612,4.85631 0,7.28448 -0.146757,0.76047 -0.640395,1.3475 -1.427545,1.41421 -2.388137,0.22681 -4.816298,0.22681 -7.271143,0 -0.787151,-0.0667 -1.334154,-0.6404 -1.4275458,-1.41421 -0.2668306,-2.42817 -0.3201972,-4.85632 0,-7.28448 0.1067338,-0.77381 0.6537358,-1.2808 1.4275458,-1.4142 z"
       class="fil68" />
    <path
       style="clip-rule:evenodd;fill:#8595bd;fill-rule:evenodd;stroke-width:0.01334154;image-rendering:optimizeQuality;shape-rendering:geometricPrecision;text-rendering:geometricPrecision"
       inkscape:connector-curvature="0"
       id="path5343"
       d="m 11.414359,117.43213 c 2.428162,-0.42694 4.816298,-0.44028 7.191093,0 0.747126,0.13341 1.254106,0.64038 1.400863,1.40086 0.453612,2.38813 0.453612,4.7896 0,7.17775 -0.146757,0.76046 -0.640395,1.33415 -1.400863,1.40086 -2.374795,0.21347 -4.762931,0.21347 -7.191093,0 -0.760468,-0.0667 -1.307472,-0.6404 -1.400862,-1.40086 -0.2668311,-2.38815 -0.3201977,-4.78962 0,-7.17775 0.106733,-0.76048 0.653736,-1.26746 1.400862,-1.40086 z"
       class="fil69" />
    <path
       style="clip-rule:evenodd;fill:#8393bc;fill-rule:evenodd;stroke-width:0.01334154;image-rendering:optimizeQuality;shape-rendering:geometricPrecision;text-rendering:geometricPrecision"
       inkscape:connector-curvature="0"
       id="path5345"
       d="m 11.467725,117.49882 c 2.388137,-0.42692 4.749591,-0.42692 7.08436,0 0.747127,0.13342 1.240764,0.6404 1.37418,1.37419 0.466954,2.36145 0.453612,4.7229 0,7.08436 -0.133417,0.74712 -0.613712,1.30747 -1.37418,1.38752 -2.334769,0.21347 -4.696223,0.21347 -7.08436,0 -0.747127,-0.0667 -1.29413,-0.62706 -1.37418,-1.38752 -0.2668304,-2.36146 -0.3201971,-4.72291 0,-7.08436 0.09339,-0.74713 0.627053,-1.24077 1.37418,-1.37419 z"
       class="fil70" />
    <path
       style="clip-rule:evenodd;fill:#8192bc;fill-rule:evenodd;stroke-width:0.01334154;image-rendering:optimizeQuality;shape-rendering:geometricPrecision;text-rendering:geometricPrecision"
       inkscape:connector-curvature="0"
       id="path5347"
       d="m 11.521091,117.56553 c 2.348112,-0.41358 4.682883,-0.42692 6.977629,0 0.733785,0.13342 1.227422,0.62706 1.360838,1.36085 0.453612,2.33476 0.440271,4.65619 0,6.97762 -0.133417,0.73378 -0.613711,1.29413 -1.360838,1.36084 -2.294746,0.21347 -4.629517,0.21347 -6.977629,0 -0.747126,-0.0667 -1.280789,-0.61372 -1.360837,-1.36084 -0.2668311,-2.32143 -0.3201978,-4.64286 0,-6.97762 0.106733,-0.73379 0.627052,-1.22743 1.360837,-1.36085 z"
       class="fil71" />
    <path
       style="clip-rule:evenodd;fill:#7f90bb;fill-rule:evenodd;stroke-width:0.01334154;image-rendering:optimizeQuality;shape-rendering:geometricPrecision;text-rendering:geometricPrecision"
       inkscape:connector-curvature="0"
       id="path5349"
       d="m 11.574458,117.63224 c 2.321428,-0.41358 4.616174,-0.41358 6.884237,0 0.720443,0.13342 1.200739,0.62706 1.334154,1.34749 0.440271,2.29476 0.440271,4.5895 0,6.88425 -0.133416,0.72044 -0.600369,1.26744 -1.334154,1.33415 -2.268063,0.21347 -4.562809,0.20013 -6.884237,0 -0.733786,-0.0667 -1.254106,-0.61371 -1.347498,-1.33415 -0.2534885,-2.29475 -0.3068538,-4.58949 0,-6.88425 0.106734,-0.73377 0.613712,-1.21407 1.347498,-1.34749 z"
       class="fil72" />
    <path
       style="clip-rule:evenodd;fill:#7d8fbb;fill-rule:evenodd;stroke-width:0.01334154;image-rendering:optimizeQuality;shape-rendering:geometricPrecision;text-rendering:geometricPrecision"
       inkscape:connector-curvature="0"
       id="path5351"
       d="m 11.627823,117.69895 c 2.281405,-0.40024 4.536126,-0.40024 6.777505,0 0.707102,0.13341 1.187398,0.61371 1.320814,1.32081 0.440271,2.26807 0.42693,4.52278 0,6.79085 -0.133416,0.7071 -0.60037,1.25411 -1.320814,1.32081 -2.241379,0.20013 -4.4961,0.20013 -6.777505,0 -0.733785,-0.0667 -1.240764,-0.60037 -1.320813,-1.32081 -0.253488,-2.26807 -0.306855,-4.52278 0,-6.79085 0.09339,-0.72044 0.60037,-1.1874 1.320813,-1.32081 z"
       class="fil73" />
    <path
       style="clip-rule:evenodd;fill:#7b8dbb;fill-rule:evenodd;stroke-width:0.01334154;image-rendering:optimizeQuality;shape-rendering:geometricPrecision;text-rendering:geometricPrecision"
       inkscape:connector-curvature="0"
       id="path5353"
       d="m 11.667848,117.779 c 2.254721,-0.40024 4.482759,-0.41358 6.684115,0 0.707102,0.12007 1.174056,0.58703 1.307471,1.29413 0.426929,2.22804 0.426929,4.45607 0,6.68412 -0.133417,0.7071 -0.587028,1.24076 -1.307471,1.29412 -2.201356,0.21347 -4.429394,0.20013 -6.684115,0 -0.707101,-0.0534 -1.214081,-0.58702 -1.294131,-1.29412 -0.253488,-2.22805 -0.306854,-4.45608 0,-6.68412 0.09339,-0.7071 0.60037,-1.17406 1.294131,-1.29413 z"
       class="fil74" />
    <path
       style="clip-rule:evenodd;fill:#798cba;fill-rule:evenodd;stroke-width:0.01334154;image-rendering:optimizeQuality;shape-rendering:geometricPrecision;text-rendering:geometricPrecision"
       inkscape:connector-curvature="0"
       id="path5355"
       d="m 11.721215,117.84571 c 2.228038,-0.40025 4.416051,-0.40025 6.590723,0 0.69376,0.12007 1.147372,0.58703 1.280788,1.28078 0.413589,2.18802 0.413589,4.38937 0,6.57739 -0.133417,0.69377 -0.587028,1.21408 -1.280788,1.28079 -2.174672,0.20012 -4.362685,0.20012 -6.590723,0 -0.693761,-0.0667 -1.200739,-0.57368 -1.280789,-1.28079 -0.240148,-2.18802 -0.293514,-4.38937 0,-6.57739 0.09339,-0.70709 0.587028,-1.16071 1.280789,-1.28078 z"
       class="fil75" />
    <path
       style="clip-rule:evenodd;fill:#778aba;fill-rule:evenodd;stroke-width:0.01334154;image-rendering:optimizeQuality;shape-rendering:geometricPrecision;text-rendering:geometricPrecision"
       inkscape:connector-curvature="0"
       id="path5357"
       d="m 11.77458,117.91241 c 2.188014,-0.3869 4.349345,-0.40025 6.483991,0 0.68042,0.12008 1.134032,0.5737 1.254106,1.25411 0.426929,2.16133 0.413588,4.32266 0,6.48399 -0.120075,0.68043 -0.560344,1.20074 -1.254106,1.26745 -2.134646,0.20012 -4.295977,0.18678 -6.483991,0 -0.69376,-0.0667 -1.187397,-0.57368 -1.267446,-1.26745 -0.240149,-2.16133 -0.280174,-4.32266 0,-6.48399 0.09339,-0.68041 0.587028,-1.13403 1.267446,-1.25411 z"
       class="fil76" />
    <path
       style="clip-rule:evenodd;fill:#ffffff;fill-rule:evenodd;stroke-width:0.01334154;image-rendering:optimizeQuality;shape-rendering:geometricPrecision;text-rendering:geometricPrecision"
       inkscape:connector-curvature="0"
       id="path5361"
       d="m 11.134187,117.49882 c 0.547003,0 1.000615,0.45362 1.000615,1.00063 0,0.56033 -0.453612,1.00061 -1.000615,1.00061 -0.560346,0 -1.000617,-0.44028 -1.000617,-1.00061 0,-0.54701 0.440271,-1.00063 1.000617,-1.00063 z"
       class="fil3" />
    <path
       style="clip-rule:evenodd;fill:#ffffff;fill-rule:evenodd;stroke-width:0.01334154;image-rendering:optimizeQuality;shape-rendering:geometricPrecision;text-rendering:geometricPrecision"
       inkscape:connector-curvature="0"
       id="path5363"
       d="m 12.655122,117.0719 c 0.280174,0 0.506979,0.22681 0.506979,0.50697 0,0.26684 -0.226805,0.49364 -0.506979,0.49364 -0.266831,0 -0.493636,-0.2268 -0.493636,-0.49364 0,-0.28016 0.226805,-0.50697 0.493636,-0.50697 z"
       class="fil3" />
    <path
       style="clip-rule:evenodd;fill:#ffffff;fill-rule:evenodd;stroke-width:0.01334154;image-rendering:optimizeQuality;shape-rendering:geometricPrecision;text-rendering:geometricPrecision"
       inkscape:connector-curvature="0"
       id="path5365"
       d="m 19.032381,126.26423 c 0.333539,0 0.60037,0.26682 0.60037,0.60036 0,0.3202 -0.266831,0.58703 -0.60037,0.58703 -0.333539,0 -0.600369,-0.26683 -0.600369,-0.58703 0,-0.33354 0.26683,-0.60036 0.600369,-0.60036 z"
       class="fil3" />
    <path
       style="clip-rule:evenodd;fill:none;fill-rule:evenodd;stroke:#6179b6;stroke-width:0.72151077;image-rendering:optimizeQuality;shape-rendering:geometricPrecision;text-rendering:geometricPrecision"
       inkscape:connector-curvature="0"
       id="path5371"
       d="m 13.428932,121.28783 h 0.573686 v -0.74713 c 0,-0.33353 0,-0.85386 0.25349,-1.17406 0.253489,-0.33354 0.60037,-0.57368 1.200739,-0.57368 0.50698,0 0.8672,0.04 1.094007,0.08 0.213464,0.0267 0.293514,0.14675 0.266831,0.33353 l -0.106733,0.60038 c -0.02668,0.21346 -0.08005,0.26683 -0.293513,0.22681 -0.120075,-0.0134 -0.25349,-0.04 -0.386905,-0.04 -0.293514,0 -0.573687,0.12008 -0.573687,0.41359 v 0.88054 h 0.920567 c 0.280172,0 0.320197,0.04 0.306856,0.28017 l -0.05337,0.60036 c 0,0.14676 0.01334,0.2535 -0.253489,0.2535 h -0.920567 v 3.42878 c 0,0.3202 -0.01334,0.49364 -0.333539,0.49364 h -0.773809 c -0.266831,0 -0.346881,-0.17344 -0.346881,-0.49364 v -3.42878 h -0.52032 c -0.200123,0 -0.26683,-0.0667 -0.26683,-0.22681 v -0.68041 c 0,-0.17345 0.08005,-0.22681 0.213464,-0.22681 z"
       class="fil18 str31" />
    <path
       style="clip-rule:evenodd;fill:#ffffff;fill-rule:evenodd;stroke-width:0.01334154;image-rendering:optimizeQuality;shape-rendering:geometricPrecision;text-rendering:geometricPrecision"
       inkscape:connector-curvature="0"
       d="m 13.428932,121.28783 h 0.573686 v -0.74713 c 0,-0.33353 0,-0.85386 0.25349,-1.17406 0.253489,-0.33354 0.60037,-0.57368 1.200739,-0.57368 0.50698,0 0.8672,0.04 1.094007,0.08 0.213464,0.0267 0.293514,0.14675 0.266831,0.33353 l -0.106733,0.60038 c -0.02668,0.21346 -0.08005,0.26683 -0.293513,0.22681 -0.120075,-0.0134 -0.25349,-0.04 -0.386905,-0.04 -0.293514,0 -0.573687,0.12008 -0.573687,0.41359 v 0.88054 h 0.920567 c 0.280172,0 0.320197,0.04 0.306856,0.28017 l -0.05337,0.60036 c 0,0.14676 0.01334,0.2535 -0.253489,0.2535 h -0.920567 v 3.42878 c 0,0.3202 -0.01334,0.49364 -0.333539,0.49364 h -0.773809 c -0.266831,0 -0.346881,-0.17344 -0.346881,-0.49364 v -3.42878 h -0.52032 c -0.200123,0 -0.26683,-0.0667 -0.26683,-0.22681 v -0.68041 c 0,-0.17345 0.08005,-0.22681 0.213464,-0.22681 z"
       class="fil3"
       id="path5373" />
    <path
       style="clip-rule:evenodd;fill:#000000;fill-opacity:0.10196102;fill-rule:evenodd;stroke-width:0.01334154;image-rendering:optimizeQuality;shape-rendering:geometricPrecision;text-rendering:geometricPrecision"
       inkscape:connector-curvature="0"
       id="path5375"
       d="m 16.791002,119.00642 c 0.02668,0.0534 0.04002,0.12007 0.02668,0.20012 l -0.106733,0.60038 c -0.02668,0.21346 -0.08005,0.26683 -0.293513,0.22681 -0.120075,-0.0134 -0.25349,-0.04 -0.386905,-0.04 -0.293514,0 -0.573687,0.12008 -0.573687,0.41359 v -0.3202 c 0,-0.30686 0.280173,-0.41359 0.573687,-0.41359 0.133416,0 0.26683,0.0133 0.386905,0.04 0.213464,0.0267 0.266831,-0.0267 0.293513,-0.24015 z m -0.120075,2.38814 c 0.01334,0.04 0.01334,0.0934 0.01334,0.17344 l -0.05337,0.60036 c 0,0.14676 0.01334,0.2535 -0.253491,0.2535 H 15.45684 v -0.33355 h 0.920566 c 0.266831,0 0.253491,-0.0934 0.253491,-0.24013 z m -1.214081,4.14922 v 0.30686 c 0,0.3202 -0.01334,0.49364 -0.333539,0.49364 h -0.77381 c -0.26683,0 -0.34688,-0.17344 -0.34688,-0.49364 v -0.3202 c 0,0.3202 0.08005,0.4803 0.34688,0.4803 h 0.77381 c 0.306856,0 0.333539,-0.1601 0.333539,-0.46696 z m -1.454229,-3.12192 h -0.52032 c -0.200124,0 -0.266831,-0.0667 -0.266831,-0.22681 v -0.32019 c 0.01334,0.16009 0.08005,0.21345 0.266831,0.21345 h 0.52032 z"
       class="fil1" />
  </g>
</svg>
