<?xml version="1.0" encoding="UTF-8" standalone="no"?>
<svg
   xmlns:osb="http://www.openswatchbook.org/uri/2009/osb"
   xmlns:dc="http://purl.org/dc/elements/1.1/"
   xmlns:cc="http://creativecommons.org/ns#"
   xmlns:rdf="http://www.w3.org/1999/02/22-rdf-syntax-ns#"
   xmlns:svg="http://www.w3.org/2000/svg"
   xmlns="http://www.w3.org/2000/svg"
   xmlns:sodipodi="http://sodipodi.sourceforge.net/DTD/sodipodi-0.dtd"
   xmlns:inkscape="http://www.inkscape.org/namespaces/inkscape"
   id="svg45344"
   version="1.1"
   viewBox="0 0 9.4364742 9.8673786"
   height="32.890167"
   width="31.453852"
   sodipodi:docname="profile.svg"
   inkscape:version="0.92.3 (2405546, 2018-03-11)">
  <sodipodi:namedview
     pagecolor="#ffffff"
     bordercolor="#666666"
     borderopacity="1"
     objecttolerance="10"
     gridtolerance="10"
     guidetolerance="10"
     inkscape:pageopacity="0"
     inkscape:pageshadow="2"
     inkscape:window-width="1920"
     inkscape:window-height="1051"
     id="namedview834"
     showgrid="false"
     units="px"
     fit-margin-top="0"
     fit-margin-left="0"
     fit-margin-right="0"
     fit-margin-bottom="0"
     inkscape:showpageshadow="false"
     showborder="true"
     scale-x="0.30001"
     inkscape:zoom="13.955272"
     inkscape:cx="7.3565509"
     inkscape:cy="17.679087"
     inkscape:window-x="1366"
     inkscape:window-y="0"
     inkscape:window-maximized="1"
     inkscape:current-layer="svg45344" />
  <defs
     id="defs45338">
    <linearGradient
       osb:paint="solid"
       id="linearGradient47621">
      <stop
         id="stop47619"
         offset="0"
         style="stop-color:#34aff3;stop-opacity:1;" />
    </linearGradient>
  </defs>
  <metadata
     id="metadata45341">
    <rdf:RDF>
      <cc:Work
         rdf:about="">
        <dc:format>image/svg+xml</dc:format>
        <dc:type
           rdf:resource="http://purl.org/dc/dcmitype/StillImage" />
        <dc:title></dc:title>
      </cc:Work>
    </rdf:RDF>
  </metadata>
  <g
     id="g3881"
     transform="matrix(0.87448875,0,0,0.87448875,-0.4516915,3.8808061)">
    <path
       class="fil1"
       d="m 2.3751759,-3.3053173 c 2.4265165,-0.4308768 4.8190163,-0.4308768 7.1888386,0 0.7597035,0.1360664 1.2472755,0.6463152 1.3946805,1.3946801 0.464893,2.40383885 0.464893,4.7963387 0,7.1888385 -0.136066,0.7597038 -0.634977,1.3379858 -1.3946805,1.4060188 -2.3698223,0.215439 -4.7623221,0.215439 -7.1888386,0 -0.7710427,-0.068033 -1.315308,-0.634976 -1.40601892,-1.4060188 -0.26079382,-2.3924998 -0.31748813,-4.78499965 0,-7.1888385 C 1.0712068,-2.670341 1.6154721,-3.1692509 2.3751759,-3.3053173 Z"
       id="path8187"
       inkscape:connector-curvature="0"
       style="clip-rule:evenodd;fill:#000000;fill-opacity:0.10196102;fill-rule:evenodd;stroke-width:0.01133886;image-rendering:optimizeQuality;shape-rendering:geometricPrecision;text-rendering:geometricPrecision" />
    <path
       class="fil2"
       d="m 2.1370597,-3.8495827 c 2.4265165,-0.4308767 4.8190166,-0.4422156 7.1888386,0 0.7597037,0.1360664 1.2586137,0.6463152 1.3946807,1.3946801 0.464893,2.40383865 0.464893,4.7963388 0,7.1888386 -0.136067,0.7597038 -0.623638,1.3379861 -1.3946807,1.4060191 -2.369822,0.215438 -4.7623221,0.215438 -7.1888386,0 C 1.3660172,6.0719251 0.82175178,5.5049786 0.74237975,4.733936 c -0.27213269,-2.3924998 -0.328827,-4.78499995 0,-7.1888386 C 0.84442951,-3.2146063 1.377356,-3.7135163 2.1370597,-3.8495827 Z"
       id="path8189"
       inkscape:connector-curvature="0"
       style="clip-rule:evenodd;fill:#e6e6e6;fill-rule:evenodd;stroke-width:0.01133886;image-rendering:optimizeQuality;shape-rendering:geometricPrecision;text-rendering:geometricPrecision" />
    <path
       class="fil3"
       d="m 2.1370597,-4.1103765 c 2.4265165,-0.4308768 4.8190166,-0.4422156 7.1888386,0 0.7597037,0.1360664 1.2586137,0.6463152 1.3946807,1.3946801 0.464893,2.40383875 0.464893,4.7963386 0,7.1888384 -0.136067,0.7597038 -0.623638,1.3379861 -1.3946807,1.4060191 -2.369822,0.215438 -4.7623221,0.215438 -7.1888386,0 C 1.3660172,5.8111311 0.82175178,5.2441847 0.74237975,4.473142 c -0.27213269,-2.3924998 -0.328827,-4.78499965 0,-7.1888384 C 0.84442951,-3.4754002 1.377356,-3.9743101 2.1370597,-4.1103765 Z"
       id="path8191"
       inkscape:connector-curvature="0"
       style="clip-rule:evenodd;fill:#ffffff;fill-rule:evenodd;stroke-width:0.01133886;image-rendering:optimizeQuality;shape-rendering:geometricPrecision;text-rendering:geometricPrecision" />
    <path
       class="fil47"
       d="m 2.5112422,-3.6001277 c 2.1770617,-0.3855213 4.3201064,-0.3968602 6.4518126,0 0.6803316,0.1247275 1.1225472,0.5669432 1.2586132,1.2472749 0.4082,2.15438365 0.4082,4.2974288 0,6.4518124 -0.136066,0.6803319 -0.5782816,1.1905806 -1.2586132,1.2586139 -2.1317062,0.1927607 -4.2747509,0.1814218 -6.4518126,0 -0.6803317,-0.068033 -1.1792416,-0.578282 -1.2472748,-1.2586139 -0.249455,-2.1543836 -0.29481042,-4.29742875 0,-6.4518124 0.090711,-0.6803317 0.5669431,-1.1338863 1.2472748,-1.2472749 z"
       id="path8195"
       inkscape:connector-curvature="0"
       style="clip-rule:evenodd;fill:#cc191c;fill-rule:evenodd;stroke-width:0.01133886;image-rendering:optimizeQuality;shape-rendering:geometricPrecision;text-rendering:geometricPrecision" />
    <path
       class="fil50"
       d="m 2.6019531,-3.9289547 c 2.1203671,-0.3741825 4.2067177,-0.3741825 6.2703906,0 0.6689931,0.1247275 1.0998699,0.5669431 1.2245973,1.2245972 0.408199,2.09768925 0.39686,4.18404 0,6.2817295 -0.1247274,0.6576542 -0.5556042,1.156564 -1.2245973,1.2132584 -2.0636729,0.1927607 -4.1500235,0.1927607 -6.2703906,0 C 1.9329602,4.733936 1.456728,4.246365 1.377356,3.577372 c -0.2381161,-2.0976895 -0.2834715,-4.18404025 0,-6.2817295 0.090711,-0.6689929 0.5669431,-1.0998697 1.2245971,-1.2245972 z"
       id="path8203"
       inkscape:connector-curvature="0"
       style="clip-rule:evenodd;fill:#fa5e87;fill-rule:evenodd;stroke-width:0.01133886;image-rendering:optimizeQuality;shape-rendering:geometricPrecision;text-rendering:geometricPrecision" />
    <path
       class="fil53"
       d="m 2.7266806,-3.7475329 c 2.0296562,-0.3628436 4.036635,-0.3628436 6.0209358,0 0.6349763,0.1133886 1.054514,0.5329266 1.1792417,1.1679028 0.3855209,2.00697855 0.3741829,4.0139574 0,6.0209359 -0.1247277,0.6349763 -0.5329265,1.1112084 -1.1792417,1.1679028 -1.9843008,0.1927607 -3.9912796,0.1814218 -6.0209358,0 C 2.0917043,4.5525142 1.6268109,4.087621 1.5587778,3.4413058 c -0.2267772,-2.0069785 -0.2721327,-4.01395735 0,-6.0209359 0.090711,-0.6349762 0.5329265,-1.0545142 1.1679028,-1.1679028 z"
       id="path8209"
       inkscape:connector-curvature="0"
       style="clip-rule:evenodd;fill:#f35572;fill-rule:evenodd;stroke-width:0.01133886;image-rendering:optimizeQuality;shape-rendering:geometricPrecision;text-rendering:geometricPrecision" />
    <path
       class="fil54"
       d="m 2.772036,-3.6908386 c 2.0069786,-0.3515047 3.9799407,-0.3628436 5.9415637,0 0.6236375,0.1133886 1.0318366,0.5329266 1.156564,1.156564 0.3741823,1.97296195 0.3741823,3.957263 0,5.9302248 -0.1247274,0.6236375 -0.5329265,1.0998696 -1.156564,1.156564 -1.961623,0.1814218 -3.9345851,0.1814218 -5.9415637,0 -0.6349763,-0.056694 -1.0771919,-0.5215876 -1.1565639,-1.156564 -0.2154384,-1.9729618 -0.2607938,-3.95726285 0,-5.9302248 0.090711,-0.6349763 0.5329265,-1.0431754 1.1565639,-1.156564 z"
       id="path8211"
       inkscape:connector-curvature="0"
       style="clip-rule:evenodd;fill:#f1516c;fill-rule:evenodd;stroke-width:0.01133886;image-rendering:optimizeQuality;shape-rendering:geometricPrecision;text-rendering:geometricPrecision" />
    <path
       class="fil57"
       d="m 2.9081024,-3.5207557 c 1.9162677,-0.3401658 3.8098577,-0.3401658 5.6807699,0 0.5896209,0.1133887 0.9864811,0.5102489 1.0998696,1.1112086 0.3628441,1.89358995 0.3628441,3.78718 0,5.6807699 -0.1133885,0.5896209 -0.4989098,1.0431752 -1.0998696,1.0998696 -1.8822511,0.1700829 -3.7645022,0.1700829 -5.6807699,0 C 2.2958038,4.314398 1.8649271,3.8721826 1.7968939,3.2712228 c -0.2154384,-1.8935899 -0.249455,-3.78717995 0,-5.6807699 0.079372,-0.6009597 0.5102488,-0.9978199 1.1112085,-1.1112086 z"
       id="path8217"
       inkscape:connector-curvature="0"
       style="clip-rule:evenodd;fill:#ea4857;fill-rule:evenodd;stroke-width:0.01133886;image-rendering:optimizeQuality;shape-rendering:geometricPrecision;text-rendering:geometricPrecision" />
    <path
       class="fil59"
       d="m 2.9874744,-3.3960281 c 1.8595735,-0.3288271 3.6964691,-0.340166 5.5106869,0 0.578282,0.1020497 0.9638033,0.487571 1.0771921,1.065853 0.3515047,1.83689565 0.3515047,3.6737913 0,5.5106869 -0.1133888,0.578282 -0.4875712,1.0204977 -1.0771921,1.0771921 -1.8142178,0.158744 -3.6511134,0.158744 -5.5106869,0 -0.578282,-0.056694 -0.9978199,-0.4875712 -1.065853,-1.0771921 -0.2040995,-1.8368956 -0.249455,-3.67379125 0,-5.5106869 0.079372,-0.578282 0.487571,-0.9638033 1.065853,-1.065853 z"
       id="path8221"
       inkscape:connector-curvature="0"
       style="clip-rule:evenodd;fill:#e54149;fill-rule:evenodd;stroke-width:0.01133886;image-rendering:optimizeQuality;shape-rendering:geometricPrecision;text-rendering:geometricPrecision" />
    <path
       class="fil17"
       d="m 2.5112422,-4.0423433 c 2.1770617,-0.3855213 4.3201064,-0.3855213 6.4518126,0 0.6803316,0.1247275 1.1225472,0.578282 1.2586132,1.2586137 0.181422,0.9751422 0.283472,1.93894555 0.30615,2.91408745 C 6.4911828,-1.513777 3.7811947,2.8857015 1.0598679,0.11901925 c 0.011339,-0.9751422 0.068033,-1.93894555 0.2040995,-2.90274885 0.090711,-0.6916706 0.5669431,-1.1338862 1.2472748,-1.2586137 z"
       id="path8223"
       inkscape:connector-curvature="0"
       style="clip-rule:evenodd;fill:#ffffff;fill-opacity:0.29019602;fill-rule:evenodd;stroke-width:0.01133886;image-rendering:optimizeQuality;shape-rendering:geometricPrecision;text-rendering:geometricPrecision" />
    <path
       class="fil3"
       d="m 2.443209,-3.7475329 c 0.4648934,0 0.8504147,0.3855213 0.8504147,0.8504147 0,0.4648933 -0.3855213,0.8504147 -0.8504147,0.8504147 -0.4648933,0 -0.8504146,-0.3855214 -0.8504146,-0.8504147 0,-0.4648934 0.3855213,-0.8504147 0.8504146,-0.8504147 z"
       id="path8225"
       inkscape:connector-curvature="0"
       style="clip-rule:evenodd;fill:#ffffff;fill-rule:evenodd;stroke-width:0.01133886;image-rendering:optimizeQuality;shape-rendering:geometricPrecision;text-rendering:geometricPrecision" />
    <path
       class="fil3"
       d="m 3.7471783,-4.1103765 c 0.226777,0 0.4195377,0.1927607 0.4195377,0.4195379 0,0.2381161 -0.1927607,0.4308768 -0.4195377,0.4308768 -0.2381162,0 -0.4308769,-0.1927607 -0.4308769,-0.4308768 0,-0.2267772 0.1927607,-0.4195379 0.4308769,-0.4195379 z"
       id="path8227"
       inkscape:connector-curvature="0"
       style="clip-rule:evenodd;fill:#ffffff;fill-rule:evenodd;stroke-width:0.01133886;image-rendering:optimizeQuality;shape-rendering:geometricPrecision;text-rendering:geometricPrecision" />
    <path
       class="fil3"
       d="m 9.1558154,3.7020997 c 0.2834714,0 0.5102487,0.226777 0.5102487,0.4989098 0,0.2834714 -0.2267773,0.5102487 -0.5102487,0.5102487 -0.2721328,0 -0.5102487,-0.2267773 -0.5102487,-0.5102487 0,-0.2721328 0.2381159,-0.4989098 0.5102487,-0.4989098 z"
       id="path8229"
       inkscape:connector-curvature="0"
       style="clip-rule:evenodd;fill:#ffffff;fill-rule:evenodd;stroke-width:0.01133886;image-rendering:optimizeQuality;shape-rendering:geometricPrecision;text-rendering:geometricPrecision" />
    <path
       class="fil18 str15"
       d="m 5.7428179,-2.5682912 c -0.1020496,0 -0.1360662,-0.2154384 -0.2381162,-0.2040995 -0.1020496,0.011339 -0.079372,0.2267772 -0.1814218,0.2381161 -0.1020496,0.022678 -0.1700829,-0.1814218 -0.2721325,-0.1587441 -0.1020499,0.034017 -0.045355,0.2381161 -0.1360665,0.2834716 -0.1020497,0.034017 -0.2040996,-0.1474052 -0.2948103,-0.1020498 -0.090711,0.045355 0,0.2381161 -0.079372,0.2948104 -0.090711,0.056694 -0.2381159,-0.1133886 -0.317488,-0.045355 -0.079372,0.056694 0.056694,0.2381161 -0.022678,0.3061493 -0.068033,0.068033 -0.2381162,-0.068033 -0.3061491,0.011339 -0.068033,0.079372 0.090711,0.2267773 0.034017,0.3061493 -0.068033,0.090711 -0.260794,-0.011339 -0.3061495,0.068033 -0.056694,0.090711 0.1360663,0.2040994 0.090711,0.2948104 -0.045356,0.1020496 -0.2494551,0.034017 -0.2834717,0.1360663 -0.034017,0.090711 0.1700829,0.17008285 0.1474051,0.27213275 -0.022678,0.090711 -0.2494548,0.079372 -0.2607937,0.1814218 -0.011339,0.1020496 0.2040996,0.1247274 0.1927607,0.2381162 0,0.1020496 -0.2154384,0.1133885 -0.2154384,0.226777 0.011339,0.1020499 0.2267773,0.090711 0.2381162,0.1927606 0.011337,0.1020499 -0.1927608,0.1587441 -0.170083,0.260794 0.022678,0.1020496 0.238116,0.056694 0.2721326,0.1474051 0.034017,0.1020499 -0.158744,0.1927607 -0.1247274,0.2948106 0.045355,0.090711 0.2494548,0 0.2948103,0.090711 0.056694,0.090711 -0.1133885,0.2267773 -0.056694,0.30614925 0.056694,0.090711 0.2381159,-0.034016 0.3061492,0.045356 0.068033,0.068033 -0.079372,0.2381162 0,0.3061495 0.068033,0.079372 0.2267773,-0.079372 0.3061491,-0.022678 0.079372,0.068033 -0.034017,0.2607937 0.056694,0.3174881 0.090711,0.056694 0.2040996,-0.1360663 0.2948103,-0.079372 0.090711,0.045355 0.022678,0.2494551 0.1133888,0.2834717 0.1020496,0.045355 0.1814218,-0.158744 0.2834714,-0.1247274 0.1020499,0.022678 0.068033,0.2381159 0.1700829,0.2607937 0.10205,0.022678 0.1360666,-0.1927607 0.2381162,-0.1814218 0.1133888,0.011337 0.1133888,0.2267773 0.2267773,0.2267773 0.1020496,0 0.1020496,-0.2154384 0.2040996,-0.2267773 0.1020496,-0.011337 0.1474051,0.2040995 0.249455,0.1814218 0.1020496,-0.022678 0.068033,-0.2381159 0.1700829,-0.2607937 0.090711,-0.034017 0.1814218,0.1700829 0.2834714,0.1247274 0.090711,-0.034017 0.011337,-0.2381162 0.1020499,-0.2834717 0.090711,-0.045355 0.2154382,0.1247277 0.3061492,0.079372 0.090711,-0.056694 -0.034017,-0.2494551 0.056694,-0.3061492 0.079372,-0.068033 0.2381159,0.090711 0.3061492,0.011337 0.079372,-0.068033 -0.068033,-0.2267773 0,-0.3061495 0.068033,-0.079372 0.249455,0.045355 0.3061491,-0.045356 0.056695,-0.0793721 -0.1133881,-0.20409935 -0.068032,-0.29481045 0.056694,-0.0907107 0.2607936,-0.0113404 0.3061491,-0.1020496 0.034017,-0.1020499 -0.158744,-0.1927607 -0.1247274,-0.2834717 0.034017,-0.1020496 0.2494551,-0.0566944 0.2721326,-0.158744 0.022678,-0.1020499 -0.1814218,-0.1474052 -0.1700829,-0.2494551 0.01134,-0.1133885 0.2267773,-0.1020496 0.2381161,-0.2040995 0,-0.1133885 -0.2154384,-0.1247274 -0.2154384,-0.226777 -0.011337,-0.10205 0.2040996,-0.1360666 0.1927607,-0.2381162 -0.011337,-0.1020499 -0.2267773,-0.0793722 -0.2607937,-0.1814218 -0.022678,-0.1020499 0.1814218,-0.18142175 0.1474052,-0.27213275 -0.034017,-0.1020496 -0.2381162,-0.034017 -0.2834717,-0.1247274 -0.045355,-0.090711 0.1474054,-0.2154384 0.090711,-0.3061493 -0.045356,-0.079372 -0.2381162,0.022678 -0.2948106,-0.056694 -0.068033,-0.090711 0.090711,-0.2381161 0.022678,-0.3174882 -0.068033,-0.079372 -0.2267773,0.068033 -0.3061492,-0.011339 -0.068033,-0.068033 0.056694,-0.249455 -0.022678,-0.3061493 -0.079372,-0.068033 -0.2154384,0.1020497 -0.3061492,0.045355 -0.090711,-0.056694 0,-0.2494549 -0.090711,-0.2948104 -0.090711,-0.056693 -0.1927607,0.1360678 -0.2834714,0.1020513 -0.10205,-0.034017 -0.045356,-0.249455 -0.1474055,-0.2834716 C 6.3211003,-2.715697 6.2644059,-2.5115972 6.1623563,-2.5342749 6.0603064,-2.5456139 6.0716453,-2.7610521 5.9695956,-2.772391 5.8675457,-2.78373 5.8448679,-2.5682915 5.7428179,-2.5682912 Z m 2.2224169,5.590059 C 7.6817634,2.99909 7.4096306,2.9877511 7.1261592,2.9764123 7.0241093,3.2258673 6.9107208,3.4753224 6.8086708,3.7247772 6.5592161,3.1691729 6.1850336,2.3641139 6.060306,2.0579645 5.9355786,1.7631542 6.128339,2.1033205 6.151017,2.1259975 6.173695,2.1486755 6.196373,2.1826915 6.21905,2.1826915 6.253067,2.1713545 6.241728,2.1486745 6.275744,2.1033195 6.298422,2.0579635 6.3211,1.9218977 6.3891328,1.89922 c 0.079372,-0.022678 0.1700829,0.079372 0.226777,0.1020499 0.045355,0.022678 0.045355,0.045355 0.079372,0.034016 0.022678,-0.01134 0.011337,-0.034016 0.034017,-0.079372 0.01134,-0.045356 0.01134,-0.1814218 0.079372,-0.2154385 0.068033,-0.034017 0.1927607,0.034017 0.2267774,0.056694 0.068033,0.034016 0.7143482,0.9184478 0.9297866,1.224597 z m -4.4561727,0 C 3.7811947,2.99909 4.0646664,2.9877511 4.3481378,2.9764123 4.4501877,3.2258673 4.5635762,3.4753224 4.6656261,3.7247772 4.9150809,3.1691729 5.2892633,2.3527751 5.413991,2.0579645 5.5387184,1.7631542 5.3459577,2.10332 5.3232799,2.1259978 5.3006022,2.1486755 5.2779244,2.1826922 5.255247,2.1826922 5.2212303,2.1713548 5.2325692,2.1486755 5.1985526,2.10332 5.1758748,2.0579645 5.153197,1.9218982 5.0738252,1.8992205 4.994453,1.8765427 4.9150809,1.9785926 4.8697256,2.0012704 c -0.056694,0.022678 -0.056694,0.045355 -0.090711,0.034016 -0.022678,0 -0.011337,-0.022678 -0.034017,-0.079372 C 4.7336576,1.9105593 4.7336576,1.7744931 4.6656261,1.7291376 4.5975928,1.6951209 4.4728654,1.7744931 4.4388488,1.7971708 4.32546,1.8425261 3.6337895,2.8516849 3.5090621,3.0217678 Z m 2.2337558,-5.0571325 c -0.4762324,0 -0.89577,0.1814218 -1.2132584,0.49891 -0.3061491,0.3061493 -0.4989098,0.72568695 -0.4989098,1.20191935 0,0.4648932 0.1927607,0.89577 0.4989098,1.2019195 0.3174884,0.30614915 0.737026,0.49890985 1.2132584,0.49890985 0.4648935,0 0.8844312,-0.1927607 1.2019195,-0.49890985 0.3061492,-0.3061495 0.4989098,-0.7370263 0.4989098,-1.2019195 0,-0.4762324 -0.1927606,-0.89577005 -0.4989098,-1.20191935 -0.3174883,-0.3174882 -0.737026,-0.49891 -1.2019195,-0.49891 z M 4.744998,-1.3323553 c 0.249455,-0.2607938 0.6009597,-0.4195378 0.9978199,-0.4195378 0.3855213,0 0.737026,0.158744 0.9864811,0.4195378 0.2607936,0.2494551 0.419538,0.60095975 0.419538,0.99781995 0,0.3855213 -0.1587444,0.737026 -0.419538,0.9978199 C 6.4798439,0.91273935 6.1283392,1.0714834 5.7428179,1.0714834 5.3459577,1.0714834 4.994453,0.91273935 4.744998,0.66328455 4.4842043,0.40249065 4.32546,0.05098595 4.32546,-0.33453535 c 0,-0.3968602 0.1587443,-0.74836485 0.419538,-0.99781995 z m 0.9184478,-0.011337 -0.3174881,0.54426535 -0.5896209,0.1020499 c -0.068033,0.01134 -0.090711,0.045355 -0.034017,0.1020496 l 0.4422157,0.4989101 -0.079372,0.5669432 c -0.022678,0.1133885 0.011337,0.1247273 0.1020499,0.079372 l 0.5896212,-0.2607938 0.4989098,0.2494547 c 0.1133888,0.0453556 0.1360662,0.0340167 0.1247274,-0.0680329 l -0.068033,-0.6463153 0.4081991,-0.419538 c 0.056694,-0.0566941 0.045355,-0.0907107 -0.034017,-0.1133885 L 6.0716448,-0.84478405 5.7995123,-1.355033 c -0.034017,-0.056694 -0.090711,-0.068033 -0.1360665,0.011341 z m 0.079372,-0.7937202 c -0.9978199,0 -1.7915403,0.8050591 -1.7915403,1.79154015 0,0.9864811 0.7937204,1.79154035 1.7915403,1.79154035 0.9864811,0 1.7802015,-0.80505925 1.7802015,-1.79154035 0,-0.98648105 -0.7937204,-1.79154015 -1.7802015,-1.79154015 z"
       id="path8235"
       inkscape:connector-curvature="0"
       style="clip-rule:evenodd;fill:none;fill-rule:evenodd;stroke:#cc191c;stroke-width:0.5751071;image-rendering:optimizeQuality;shape-rendering:geometricPrecision;text-rendering:geometricPrecision" />
    <path
       id="path8237"
       class="fil3"
       d="m 5.7428179,-2.5682912 c -0.1020496,0 -0.1360662,-0.2154384 -0.2381162,-0.2040995 -0.1020496,0.011339 -0.079372,0.2267772 -0.1814218,0.2381161 -0.1020496,0.022678 -0.1700829,-0.1814218 -0.2721325,-0.1587441 -0.1020499,0.034017 -0.045355,0.2381161 -0.1360665,0.2834716 -0.1020497,0.034017 -0.2040996,-0.1474052 -0.2948103,-0.1020498 -0.090711,0.045355 0,0.2381161 -0.079372,0.2948104 -0.090711,0.056694 -0.2381159,-0.1133886 -0.317488,-0.045355 -0.079372,0.056694 0.056694,0.2381161 -0.022678,0.3061493 -0.068033,0.068033 -0.2381162,-0.068033 -0.3061491,0.011339 -0.068033,0.079372 0.090711,0.2267773 0.034017,0.3061493 -0.068033,0.090711 -0.260794,-0.011339 -0.3061495,0.068033 -0.056694,0.090711 0.1360663,0.2040994 0.090711,0.2948104 -0.045356,0.1020496 -0.2494551,0.034017 -0.2834717,0.1360663 -0.034017,0.090711 0.1700829,0.17008285 0.1474051,0.27213275 -0.022678,0.090711 -0.2494548,0.079372 -0.2607937,0.1814218 -0.011339,0.1020496 0.2040996,0.1247274 0.1927607,0.2381162 0,0.1020496 -0.2154384,0.1133885 -0.2154384,0.226777 0.011339,0.1020499 0.2267773,0.090711 0.2381162,0.1927606 0.011337,0.1020499 -0.1927608,0.1587441 -0.170083,0.260794 0.022678,0.1020496 0.238116,0.056694 0.2721326,0.1474051 0.034017,0.1020499 -0.158744,0.1927607 -0.1247274,0.2948106 0.045355,0.090711 0.2494548,0 0.2948103,0.090711 0.056694,0.090711 -0.1133885,0.2267773 -0.056694,0.30614925 0.056694,0.090711 0.2381159,-0.034016 0.3061492,0.045356 0.068033,0.068033 -0.079372,0.2381162 0,0.3061495 0.068033,0.079372 0.2267773,-0.079372 0.3061491,-0.022678 0.079372,0.068033 -0.034017,0.2607937 0.056694,0.3174881 0.090711,0.056694 0.2040996,-0.1360663 0.2948103,-0.079372 0.090711,0.045355 0.022678,0.2494551 0.1133888,0.2834717 0.1020496,0.045355 0.1814218,-0.158744 0.2834714,-0.1247274 0.1020499,0.022678 0.068033,0.2381159 0.1700829,0.2607937 0.10205,0.022678 0.1360666,-0.1927607 0.2381162,-0.1814218 0.1133888,0.011337 0.1133888,0.2267773 0.2267773,0.2267773 0.1020496,0 0.1020496,-0.2154384 0.2040996,-0.2267773 0.1020496,-0.011337 0.1474051,0.2040995 0.249455,0.1814218 0.1020496,-0.022678 0.068033,-0.2381159 0.1700829,-0.2607937 0.090711,-0.034017 0.1814218,0.1700829 0.2834714,0.1247274 0.090711,-0.034017 0.011337,-0.2381162 0.1020499,-0.2834717 0.090711,-0.045355 0.2154382,0.1247277 0.3061492,0.079372 0.090711,-0.056694 -0.034017,-0.2494551 0.056694,-0.3061492 0.079372,-0.068033 0.2381159,0.090711 0.3061492,0.011337 0.079372,-0.068033 -0.068033,-0.2267773 0,-0.3061495 0.068033,-0.079372 0.249455,0.045355 0.3061491,-0.045356 0.056695,-0.0793721 -0.1133881,-0.20409935 -0.068032,-0.29481045 0.056694,-0.0907107 0.2607936,-0.0113404 0.3061491,-0.1020496 0.034017,-0.1020499 -0.158744,-0.1927607 -0.1247274,-0.2834717 0.034017,-0.1020496 0.2494551,-0.0566944 0.2721326,-0.158744 0.022678,-0.1020499 -0.1814218,-0.1474052 -0.1700829,-0.2494551 0.01134,-0.1133885 0.2267773,-0.1020496 0.2381161,-0.2040995 0,-0.1133885 -0.2154384,-0.1247274 -0.2154384,-0.226777 -0.011337,-0.10205 0.2040996,-0.1360666 0.1927607,-0.2381162 -0.011337,-0.1020499 -0.2267773,-0.0793722 -0.2607937,-0.1814218 -0.022678,-0.1020499 0.1814218,-0.18142175 0.1474052,-0.27213275 -0.034017,-0.1020496 -0.2381162,-0.034017 -0.2834717,-0.1247274 -0.045355,-0.090711 0.1474054,-0.2154384 0.090711,-0.3061493 -0.045356,-0.079372 -0.2381162,0.022678 -0.2948106,-0.056694 -0.068033,-0.090711 0.090711,-0.2381161 0.022678,-0.3174882 -0.068033,-0.079372 -0.2267773,0.068033 -0.3061492,-0.011339 -0.068033,-0.068033 0.056694,-0.249455 -0.022678,-0.3061493 -0.079372,-0.068033 -0.2154384,0.1020497 -0.3061492,0.045355 -0.090711,-0.056694 0,-0.2494549 -0.090711,-0.2948104 -0.090711,-0.056693 -0.1927607,0.1360678 -0.2834714,0.1020513 -0.10205,-0.034017 -0.045356,-0.249455 -0.1474055,-0.2834716 C 6.3211003,-2.715697 6.2644059,-2.5115972 6.1623563,-2.5342749 6.0603064,-2.5456139 6.0716453,-2.7610521 5.9695956,-2.772391 5.8675457,-2.78373 5.8448679,-2.5682915 5.7428179,-2.5682912 Z m 2.2224169,5.590059 C 7.6817634,2.99909 7.4096306,2.9877511 7.1261592,2.9764123 7.0241093,3.2258673 6.9107208,3.4753224 6.8086708,3.7247772 6.5592161,3.1691729 6.1850336,2.3641139 6.060306,2.0579645 5.9355786,1.7631542 6.128339,2.1033205 6.151017,2.1259975 6.173695,2.1486755 6.196373,2.1826915 6.21905,2.1826915 6.253067,2.1713545 6.241728,2.1486745 6.275744,2.1033195 6.298422,2.0579635 6.3211,1.9218977 6.3891328,1.89922 c 0.079372,-0.022678 0.1700829,0.079372 0.226777,0.1020499 0.045355,0.022678 0.045355,0.045355 0.079372,0.034016 0.022678,-0.01134 0.011337,-0.034016 0.034017,-0.079372 0.01134,-0.045356 0.01134,-0.1814218 0.079372,-0.2154385 0.068033,-0.034017 0.1927607,0.034017 0.2267774,0.056694 0.068033,0.034016 0.7143482,0.9184478 0.9297866,1.224597 z m -4.4561727,0 C 3.7811947,2.99909 4.0646664,2.9877511 4.3481378,2.9764123 4.4501877,3.2258673 4.5635762,3.4753224 4.6656261,3.7247772 4.9150809,3.1691729 5.2892633,2.3527751 5.413991,2.0579645 5.5387184,1.7631542 5.3459577,2.10332 5.3232799,2.1259978 5.3006022,2.1486755 5.2779244,2.1826922 5.255247,2.1826922 5.2212303,2.1713548 5.2325692,2.1486755 5.1985526,2.10332 5.1758748,2.0579645 5.153197,1.9218982 5.0738252,1.8992205 4.994453,1.8765427 4.9150809,1.9785926 4.8697256,2.0012704 c -0.056694,0.022678 -0.056694,0.045355 -0.090711,0.034016 -0.022678,0 -0.011337,-0.022678 -0.034017,-0.079372 C 4.7336576,1.9105593 4.7336576,1.7744931 4.6656261,1.7291376 4.5975928,1.6951209 4.4728654,1.7744931 4.4388488,1.7971708 4.32546,1.8425261 3.6337895,2.8516849 3.5090621,3.0217678 Z m 2.2337558,-5.0571325 c -0.4762324,0 -0.89577,0.1814218 -1.2132584,0.49891 -0.3061491,0.3061493 -0.4989098,0.72568695 -0.4989098,1.20191935 0,0.4648932 0.1927607,0.89577 0.4989098,1.2019195 0.3174884,0.30614915 0.737026,0.49890985 1.2132584,0.49890985 0.4648935,0 0.8844312,-0.1927607 1.2019195,-0.49890985 0.3061492,-0.3061495 0.4989098,-0.7370263 0.4989098,-1.2019195 0,-0.4762324 -0.1927606,-0.89577005 -0.4989098,-1.20191935 -0.3174883,-0.3174882 -0.737026,-0.49891 -1.2019195,-0.49891 z M 4.744998,-1.3323553 c 0.249455,-0.2607938 0.6009597,-0.4195378 0.9978199,-0.4195378 0.3855213,0 0.737026,0.158744 0.9864811,0.4195378 0.2607936,0.2494551 0.419538,0.60095975 0.419538,0.99781995 0,0.3855213 -0.1587444,0.737026 -0.419538,0.9978199 C 6.4798439,0.91273935 6.1283392,1.0714834 5.7428179,1.0714834 5.3459577,1.0714834 4.994453,0.91273935 4.744998,0.66328455 4.4842043,0.40249065 4.32546,0.05098595 4.32546,-0.33453535 c 0,-0.3968602 0.1587443,-0.74836485 0.419538,-0.99781995 z m 0.9184478,-0.011337 -0.3174881,0.54426535 -0.5896209,0.1020499 c -0.068033,0.01134 -0.090711,0.045355 -0.034017,0.1020496 l 0.4422157,0.4989101 -0.079372,0.5669432 c -0.022678,0.1133885 0.011337,0.1247273 0.1020499,0.079372 l 0.5896212,-0.2607938 0.4989098,0.2494547 c 0.1133888,0.0453556 0.1360662,0.0340167 0.1247274,-0.0680329 l -0.068033,-0.6463153 0.4081991,-0.419538 c 0.056694,-0.0566941 0.045355,-0.0907107 -0.034017,-0.1133885 L 6.0716448,-0.84478405 5.7995123,-1.355033 c -0.034017,-0.056694 -0.090711,-0.068033 -0.1360665,0.011341 z m 0.079372,-0.7937202 c -0.9978199,0 -1.7915403,0.8050591 -1.7915403,1.79154015 0,0.9864811 0.7937204,1.79154035 1.7915403,1.79154035 0.9864811,0 1.7802015,-0.80505925 1.7802015,-1.79154035 0,-0.98648105 -0.7937204,-1.79154015 -1.7802015,-1.79154015 z"
       inkscape:connector-curvature="0"
       style="clip-rule:evenodd;fill:#ffffff;fill-rule:evenodd;stroke-width:0.01133886;image-rendering:optimizeQuality;shape-rendering:geometricPrecision;text-rendering:geometricPrecision" />
  </g>
</svg>
