<?xml version="1.0" encoding="UTF-8" standalone="no"?>
<!-- Created with Inkscape (http://www.inkscape.org/) -->

<svg
   xmlns:osb="http://www.openswatchbook.org/uri/2009/osb"
   xmlns:dc="http://purl.org/dc/elements/1.1/"
   xmlns:cc="http://creativecommons.org/ns#"
   xmlns:rdf="http://www.w3.org/1999/02/22-rdf-syntax-ns#"
   xmlns:svg="http://www.w3.org/2000/svg"
   xmlns="http://www.w3.org/2000/svg"
   xmlns:sodipodi="http://sodipodi.sourceforge.net/DTD/sodipodi-0.dtd"
   xmlns:inkscape="http://www.inkscape.org/namespaces/inkscape"
   width="12.7mm"
   height="8.4665804mm"
   viewBox="0 0 12.7 8.4665804"
   version="1.1"
   id="svg45344"
   inkscape:version="0.92.3 (2405546, 2018-03-11)"
   sodipodi:docname="equal.svg">
  <defs
     id="defs45338">
    <linearGradient
       id="linearGradient47621"
       osb:paint="solid">
      <stop
         style="stop-color:#34aff3;stop-opacity:1;"
         offset="0"
         id="stop47619" />
    </linearGradient>
  </defs>
  <sodipodi:namedview
     id="base"
     pagecolor="#ffffff"
     bordercolor="#666666"
     borderopacity="1.0"
     inkscape:pageopacity="0.0"
     inkscape:pageshadow="2"
     inkscape:zoom="8"
     inkscape:cx="23.559703"
     inkscape:cy="18.210577"
     inkscape:document-units="mm"
     inkscape:current-layer="layer1"
     showgrid="false"
     fit-margin-top="0"
     fit-margin-left="0"
     fit-margin-right="0"
     fit-margin-bottom="0"
     inkscape:window-width="1366"
     inkscape:window-height="708"
     inkscape:window-x="0"
     inkscape:window-y="32"
     inkscape:window-maximized="1"
     showguides="true"
     inkscape:guide-bbox="true">
    <sodipodi:guide
       position="1.4519771,11.257699"
       orientation="1,0"
       id="guide47761"
       inkscape:locked="false" />
  </sodipodi:namedview>
  <metadata
     id="metadata45341">
    <rdf:RDF>
      <cc:Work
         rdf:about="">
        <dc:format>image/svg+xml</dc:format>
        <dc:type
           rdf:resource="http://purl.org/dc/dcmitype/StillImage" />
        <dc:title></dc:title>
      </cc:Work>
    </rdf:RDF>
  </metadata>
  <g
     inkscape:label="Capa 1"
     inkscape:groupmode="layer"
     id="layer1"
     transform="translate(-8.5563611,-118.98097)">
    <path
       style="clip-rule:evenodd;fill:none;fill-rule:evenodd;stroke:#00b0dc;stroke-width:1.09167027;image-rendering:optimizeQuality;shape-rendering:geometricPrecision;text-rendering:geometricPrecision"
       inkscape:connector-curvature="0"
       id="path467"
       d="m 20.710526,125.85414 v -1.11042 c 0,-0.58664 -0.486449,-1.04758 -1.105544,-1.04758 h -9.375131 c -0.6190946,0 -1.1276548,0.46094 -1.1276548,1.04758 v 1.11042 c 0,0.58664 0.5085602,1.04758 1.1276548,1.04758 h 9.375131 c 0.619095,0 1.105544,-0.46094 1.105544,-1.04758 z m 0,-4.16933 v -1.11042 c 0,-0.58664 -0.486449,-1.04758 -1.105544,-1.04758 h -9.375131 c -0.6190946,0 -1.1276548,0.46094 -1.1276548,1.04758 v 1.11042 c 0,0.56569 0.5085602,1.04758 1.1276548,1.04758 h 9.375131 c 0.619095,0 1.105544,-0.48189 1.105544,-1.04758 z"
       class="fil18 str1" />
    <path
       style="clip-rule:evenodd;fill:#ffffff;fill-rule:evenodd;stroke-width:0.02152346;image-rendering:optimizeQuality;shape-rendering:geometricPrecision;text-rendering:geometricPrecision"
       inkscape:connector-curvature="0"
       d="m 20.710526,125.85414 v -1.11042 c 0,-0.58664 -0.486449,-1.04758 -1.105544,-1.04758 h -9.375131 c -0.6190946,0 -1.1276548,0.46094 -1.1276548,1.04758 v 1.11042 c 0,0.58664 0.5085602,1.04758 1.1276548,1.04758 h 9.375131 c 0.619095,0 1.105544,-0.46094 1.105544,-1.04758 z m 0,-4.16933 v -1.11042 c 0,-0.58664 -0.486449,-1.04758 -1.105544,-1.04758 h -9.375131 c -0.6190946,0 -1.1276548,0.46094 -1.1276548,1.04758 v 1.11042 c 0,0.56569 0.5085602,1.04758 1.1276548,1.04758 h 9.375131 c 0.619095,0 1.105544,-0.48189 1.105544,-1.04758 z"
       class="fil3"
       id="path469" />
    <path
       style="clip-rule:evenodd;fill:#000000;fill-opacity:0.10196102;fill-rule:evenodd;stroke-width:0.02152346;image-rendering:optimizeQuality;shape-rendering:geometricPrecision;text-rendering:geometricPrecision"
       inkscape:connector-curvature="0"
       id="path471"
       d="m 9.6107564,125.33037 c 0,0.58662 0.5085386,1.04756 1.1276546,1.04756 h 9.220352 c -0.04422,0.0628 -0.08845,0.10476 -0.132668,0.14666 0.110557,-0.0419 0.199002,-0.0838 0.265314,-0.14666 h 0.02211 c 0.176891,0 0.353781,-0.0419 0.508561,-0.12571 -0.15478,0.37713 -0.552783,0.6495 -1.017099,0.6495 H 10.20774 c -0.3095365,0 -0.5969836,-0.12571 -0.7959854,-0.33523 -0.1768906,-0.18856 -0.3095584,-0.43998 -0.3095584,-0.71235 v -0.12571 -0.98471 c 0,-0.39808 0.2432244,-0.75426 0.5970055,-0.92187 -0.044223,0.12571 -0.088445,0.25142 -0.088445,0.39808 z"
       class="fil1" />
    <path
       style="clip-rule:evenodd;fill:#000000;fill-opacity:0.10196102;fill-rule:evenodd;stroke-width:0.02152346;image-rendering:optimizeQuality;shape-rendering:geometricPrecision;text-rendering:geometricPrecision"
       inkscape:connector-curvature="0"
       id="path473"
       d="m 10.20774,122.73239 c -0.5969836,0 -1.1055438,-0.48189 -1.1055438,-1.04758 v -1.00566 -0.10476 c 0,-0.27237 0.1326678,-0.54474 0.3095584,-0.7333 0.088445,-0.0838 0.1990018,-0.14667 0.2874471,-0.20952 -0.044223,0.12571 -0.088445,0.27237 -0.088445,0.41903 v 1.11042 c 0,0.58664 0.5085383,1.04758 1.1276543,1.04758 h 7.473558 1.746794 c -0.04422,0.0419 -0.08845,0.10476 -0.132668,0.14666 0.110557,-0.0419 0.176891,-0.0838 0.265314,-0.14666 h 0.02211 c 0.176891,0 0.353781,-0.0419 0.508561,-0.12571 -0.15478,0.37713 -0.552783,0.64948 -1.017099,0.64948 h -1.149788 z"
       class="fil1" />
  </g>
</svg>
